<mxfile host="app.diagrams.net" agent="Mozilla/5.0 (Windows NT 10.0; Win64; x64) AppleWebKit/537.36 (KHTML, like Gecko) Chrome/128.0.0.0 Safari/537.36" version="24.7.14">
  <diagram name="第 1 页" id="TA_flvRidIN1MDQiCpFb">
    <mxGraphModel grid="1" page="1" gridSize="10" guides="1" tooltips="1" connect="1" arrows="1" fold="1" pageScale="1" pageWidth="827" pageHeight="1169" math="0" shadow="0">
      <root>
        <mxCell id="0" />
        <mxCell id="1" parent="0" />
        <mxCell id="h3CtUdWNvLVvWNDMPcVa-4" style="edgeStyle=orthogonalEdgeStyle;rounded=0;orthogonalLoop=1;jettySize=auto;html=1;" edge="1" parent="1">
          <mxGeometry relative="1" as="geometry">
            <mxPoint x="1800" y="-2351.785" as="sourcePoint" />
            <mxPoint x="1800" y="-2331.785" as="targetPoint" />
          </mxGeometry>
        </mxCell>
        <mxCell id="h3CtUdWNvLVvWNDMPcVa-54" style="edgeStyle=orthogonalEdgeStyle;rounded=0;orthogonalLoop=1;jettySize=auto;html=1;exitX=0.5;exitY=0;exitDx=0;exitDy=0;entryX=0;entryY=0.5;entryDx=0;entryDy=0;" edge="1" parent="1" source="h3CtUdWNvLVvWNDMPcVa-5" target="h3CtUdWNvLVvWNDMPcVa-28">
          <mxGeometry relative="1" as="geometry">
            <mxPoint x="-1249" y="-430" as="targetPoint" />
          </mxGeometry>
        </mxCell>
        <mxCell id="h3CtUdWNvLVvWNDMPcVa-5" value="" style="shape=trapezoid;perimeter=trapezoidPerimeter;whiteSpace=wrap;html=1;fixedSize=1;rotation=-180;size=50;fillColor=#dae8fc;strokeColor=#6c8ebf;" vertex="1" parent="1">
          <mxGeometry x="-1330" y="-650" width="160" height="60" as="geometry" />
        </mxCell>
        <mxCell id="h3CtUdWNvLVvWNDMPcVa-19" style="edgeStyle=orthogonalEdgeStyle;rounded=0;orthogonalLoop=1;jettySize=auto;html=1;exitX=0.5;exitY=0;exitDx=0;exitDy=0;entryX=0;entryY=0.5;entryDx=0;entryDy=0;" edge="1" parent="1" source="h3CtUdWNvLVvWNDMPcVa-6" target="h3CtUdWNvLVvWNDMPcVa-8">
          <mxGeometry relative="1" as="geometry" />
        </mxCell>
        <mxCell id="h3CtUdWNvLVvWNDMPcVa-6" value="&lt;div style=&quot;font-size: 25px;&quot;&gt;&lt;hr&gt;&lt;/div&gt;" style="rounded=0;whiteSpace=wrap;html=1;rotation=90;fillColor=#dae8fc;strokeColor=#6c8ebf;" vertex="1" parent="1">
          <mxGeometry x="-1120" y="-1070" width="120" height="40" as="geometry" />
        </mxCell>
        <mxCell id="h3CtUdWNvLVvWNDMPcVa-61" style="edgeStyle=orthogonalEdgeStyle;rounded=0;orthogonalLoop=1;jettySize=auto;html=1;exitX=1;exitY=0.5;exitDx=0;exitDy=0;entryX=0.5;entryY=1;entryDx=0;entryDy=0;" edge="1" parent="1" source="h3CtUdWNvLVvWNDMPcVa-8" target="h3CtUdWNvLVvWNDMPcVa-9">
          <mxGeometry relative="1" as="geometry" />
        </mxCell>
        <mxCell id="h3CtUdWNvLVvWNDMPcVa-8" value="&lt;font style=&quot;font-size: 26px;&quot;&gt;+4&lt;/font&gt;" style="whiteSpace=wrap;html=1;aspect=fixed;fillColor=#dae8fc;strokeColor=#6c8ebf;" vertex="1" parent="1">
          <mxGeometry x="-630" y="-1090" width="80" height="80" as="geometry" />
        </mxCell>
        <mxCell id="MimmkQN_pH5iQWNIVET2-38" style="edgeStyle=orthogonalEdgeStyle;rounded=0;orthogonalLoop=1;jettySize=auto;html=1;exitX=1;exitY=0.5;exitDx=0;exitDy=0;entryX=0;entryY=0.25;entryDx=0;entryDy=0;" edge="1" parent="1" source="MimmkQN_pH5iQWNIVET2-35" target="h3CtUdWNvLVvWNDMPcVa-77">
          <mxGeometry relative="1" as="geometry" />
        </mxCell>
        <mxCell id="h3CtUdWNvLVvWNDMPcVa-9" value="" style="rounded=0;whiteSpace=wrap;html=1;rotation=90;fillColor=#dae8fc;strokeColor=#6c8ebf;" vertex="1" parent="1">
          <mxGeometry x="-340" y="-1070" width="120" height="40" as="geometry" />
        </mxCell>
        <mxCell id="h3CtUdWNvLVvWNDMPcVa-10" value="" style="rounded=0;whiteSpace=wrap;html=1;rotation=90;fillColor=#dae8fc;strokeColor=#6c8ebf;" vertex="1" parent="1">
          <mxGeometry x="-340" y="-800" width="120" height="40" as="geometry" />
        </mxCell>
        <mxCell id="h3CtUdWNvLVvWNDMPcVa-63" style="edgeStyle=orthogonalEdgeStyle;rounded=0;orthogonalLoop=1;jettySize=auto;html=1;entryX=0.5;entryY=1;entryDx=0;entryDy=0;" edge="1" parent="1" source="h3CtUdWNvLVvWNDMPcVa-28" target="h3CtUdWNvLVvWNDMPcVa-58">
          <mxGeometry relative="1" as="geometry" />
        </mxCell>
        <mxCell id="h3CtUdWNvLVvWNDMPcVa-28" value="" style="rounded=0;whiteSpace=wrap;html=1;fillColor=#dae8fc;strokeColor=#6c8ebf;" vertex="1" parent="1">
          <mxGeometry x="-1155" y="-490" width="225" height="170" as="geometry" />
        </mxCell>
        <mxCell id="h3CtUdWNvLVvWNDMPcVa-41" style="edgeStyle=orthogonalEdgeStyle;rounded=0;orthogonalLoop=1;jettySize=auto;html=1;entryX=0.5;entryY=1;entryDx=0;entryDy=0;" edge="1" parent="1" target="h3CtUdWNvLVvWNDMPcVa-6">
          <mxGeometry relative="1" as="geometry">
            <mxPoint x="-1360" y="-1051.11" as="sourcePoint" />
            <mxPoint x="-1090" y="-1051" as="targetPoint" />
          </mxGeometry>
        </mxCell>
        <mxCell id="h3CtUdWNvLVvWNDMPcVa-47" style="edgeStyle=orthogonalEdgeStyle;rounded=0;orthogonalLoop=1;jettySize=auto;html=1;exitX=0.25;exitY=1;exitDx=0;exitDy=0;" edge="1" parent="1" source="h3CtUdWNvLVvWNDMPcVa-40">
          <mxGeometry relative="1" as="geometry">
            <mxPoint x="-440" y="-1050" as="targetPoint" />
            <Array as="points">
              <mxPoint x="-1417" y="-1084" />
              <mxPoint x="-1417" y="-1138" />
              <mxPoint x="-440" y="-1138" />
            </Array>
          </mxGeometry>
        </mxCell>
        <mxCell id="h3CtUdWNvLVvWNDMPcVa-40" value="" style="shape=trapezoid;perimeter=trapezoidPerimeter;whiteSpace=wrap;html=1;fixedSize=1;rotation=90;fillColor=#dae8fc;strokeColor=#6c8ebf;" vertex="1" parent="1">
          <mxGeometry x="-1485" y="-1030" width="215" height="40" as="geometry" />
        </mxCell>
        <mxCell id="h3CtUdWNvLVvWNDMPcVa-52" value="" style="endArrow=classic;html=1;rounded=0;entryX=0.25;entryY=1;entryDx=0;entryDy=0;" edge="1" parent="1" target="h3CtUdWNvLVvWNDMPcVa-5">
          <mxGeometry width="50" height="50" relative="1" as="geometry">
            <mxPoint x="-1210" y="-1050" as="sourcePoint" />
            <mxPoint x="-1210" y="-770" as="targetPoint" />
          </mxGeometry>
        </mxCell>
        <mxCell id="h3CtUdWNvLVvWNDMPcVa-53" value="" style="endArrow=classic;html=1;rounded=0;entryX=0.75;entryY=1;entryDx=0;entryDy=0;" edge="1" parent="1" target="h3CtUdWNvLVvWNDMPcVa-5">
          <mxGeometry width="50" height="50" relative="1" as="geometry">
            <mxPoint x="-1290" y="-790" as="sourcePoint" />
            <mxPoint x="-1279.9951851851852" y="-762.2222222222217" as="targetPoint" />
          </mxGeometry>
        </mxCell>
        <mxCell id="idpTYqr38m1hENi_6hJd-5" value="rst_vect&lt;div style=&quot;font-size: 23px;&quot;&gt;&lt;br style=&quot;font-size: 23px;&quot;&gt;&lt;/div&gt;" style="edgeLabel;html=1;align=center;verticalAlign=middle;resizable=0;points=[];fontSize=23;" connectable="0" vertex="1" parent="h3CtUdWNvLVvWNDMPcVa-53">
          <mxGeometry x="-0.0429" relative="1" as="geometry">
            <mxPoint y="3" as="offset" />
          </mxGeometry>
        </mxCell>
        <mxCell id="h3CtUdWNvLVvWNDMPcVa-72" style="edgeStyle=orthogonalEdgeStyle;rounded=0;orthogonalLoop=1;jettySize=auto;html=1;exitX=0.5;exitY=0;exitDx=0;exitDy=0;entryX=0.75;entryY=1;entryDx=0;entryDy=0;" edge="1" parent="1" source="h3CtUdWNvLVvWNDMPcVa-56" target="h3CtUdWNvLVvWNDMPcVa-58">
          <mxGeometry relative="1" as="geometry" />
        </mxCell>
        <mxCell id="h3CtUdWNvLVvWNDMPcVa-56" value="" style="rounded=0;whiteSpace=wrap;html=1;rotation=90;fillColor=#dae8fc;strokeColor=#6c8ebf;" vertex="1" parent="1">
          <mxGeometry x="-850" y="-300" width="120" height="60" as="geometry" />
        </mxCell>
        <mxCell id="h3CtUdWNvLVvWNDMPcVa-74" style="edgeStyle=orthogonalEdgeStyle;rounded=0;orthogonalLoop=1;jettySize=auto;html=1;exitX=0.5;exitY=0;exitDx=0;exitDy=0;entryX=0.5;entryY=1;entryDx=0;entryDy=0;" edge="1" parent="1" source="h3CtUdWNvLVvWNDMPcVa-58" target="h3CtUdWNvLVvWNDMPcVa-12">
          <mxGeometry relative="1" as="geometry" />
        </mxCell>
        <mxCell id="h3CtUdWNvLVvWNDMPcVa-58" value="" style="shape=trapezoid;perimeter=trapezoidPerimeter;whiteSpace=wrap;html=1;fixedSize=1;rotation=90;size=50;fillColor=#dae8fc;strokeColor=#6c8ebf;" vertex="1" parent="1">
          <mxGeometry x="-750" y="-435" width="160" height="60" as="geometry" />
        </mxCell>
        <mxCell id="h3CtUdWNvLVvWNDMPcVa-77" value="&lt;font style=&quot;font-size: 30px;&quot;&gt;j_targ&lt;/font&gt;" style="rounded=0;whiteSpace=wrap;html=1;fillColor=#dae8fc;strokeColor=#6c8ebf;" vertex="1" parent="1">
          <mxGeometry x="-10" y="-1080" width="280" height="120" as="geometry" />
        </mxCell>
        <mxCell id="h3CtUdWNvLVvWNDMPcVa-81" value="" style="endArrow=none;html=1;rounded=0;" edge="1" parent="1" target="zn3MZnFg3po8sbIGN5-C-2">
          <mxGeometry width="50" height="50" relative="1" as="geometry">
            <mxPoint x="-760" y="-770" as="sourcePoint" />
            <mxPoint x="-760" y="-1050" as="targetPoint" />
          </mxGeometry>
        </mxCell>
        <mxCell id="h3CtUdWNvLVvWNDMPcVa-82" value="" style="endArrow=classic;html=1;rounded=0;entryX=0.594;entryY=1.111;entryDx=0;entryDy=0;entryPerimeter=0;" edge="1" parent="1" target="h3CtUdWNvLVvWNDMPcVa-10">
          <mxGeometry width="50" height="50" relative="1" as="geometry">
            <mxPoint x="-760" y="-770" as="sourcePoint" />
            <mxPoint x="-300" y="-770" as="targetPoint" />
          </mxGeometry>
        </mxCell>
        <mxCell id="h3CtUdWNvLVvWNDMPcVa-84" value="&lt;font style=&quot;font-size: 30px;&quot;&gt;br_targ&lt;/font&gt;" style="rounded=0;whiteSpace=wrap;html=1;fillColor=#dae8fc;strokeColor=#6c8ebf;" vertex="1" parent="1">
          <mxGeometry y="-830" width="280" height="140" as="geometry" />
        </mxCell>
        <mxCell id="MimmkQN_pH5iQWNIVET2-62" style="edgeStyle=orthogonalEdgeStyle;rounded=0;orthogonalLoop=1;jettySize=auto;html=1;exitX=1;exitY=0.25;exitDx=0;exitDy=0;entryX=0;entryY=0.25;entryDx=0;entryDy=0;" edge="1" parent="1" source="h3CtUdWNvLVvWNDMPcVa-85" target="idpTYqr38m1hENi_6hJd-6">
          <mxGeometry relative="1" as="geometry" />
        </mxCell>
        <mxCell id="h3CtUdWNvLVvWNDMPcVa-85" value="&lt;font style=&quot;font-size: 30px;&quot;&gt;regfile(read)&lt;/font&gt;" style="rounded=0;whiteSpace=wrap;html=1;fillColor=#dae8fc;strokeColor=#6c8ebf;" vertex="1" parent="1">
          <mxGeometry x="-5" y="-515" width="290" height="130" as="geometry" />
        </mxCell>
        <mxCell id="idpTYqr38m1hENi_6hJd-1" value="" style="endArrow=classic;html=1;rounded=0;fillColor=#dae8fc;strokeColor=#6c8ebf;" edge="1" parent="1">
          <mxGeometry width="50" height="50" relative="1" as="geometry">
            <mxPoint x="-1378.21" y="-820" as="sourcePoint" />
            <mxPoint x="-1378.21" y="-900" as="targetPoint" />
          </mxGeometry>
        </mxCell>
        <mxCell id="idpTYqr38m1hENi_6hJd-4" value="&lt;font color=&quot;#3333ff&quot;&gt;pc_mux_sel_P&lt;/font&gt;" style="edgeLabel;html=1;align=center;verticalAlign=middle;resizable=0;points=[];fontSize=23;" connectable="0" vertex="1" parent="idpTYqr38m1hENi_6hJd-1">
          <mxGeometry x="0.1464" y="-1" relative="1" as="geometry">
            <mxPoint y="56" as="offset" />
          </mxGeometry>
        </mxCell>
        <mxCell id="idpTYqr38m1hENi_6hJd-6" value="&lt;font style=&quot;font-size: 30px;&quot;&gt;jr_targ&lt;/font&gt;" style="rounded=0;whiteSpace=wrap;html=1;fillColor=#dae8fc;strokeColor=#6c8ebf;" vertex="1" parent="1">
          <mxGeometry x="440" y="-1000" width="280" height="90" as="geometry" />
        </mxCell>
        <mxCell id="MimmkQN_pH5iQWNIVET2-110" style="edgeStyle=orthogonalEdgeStyle;rounded=0;orthogonalLoop=1;jettySize=auto;html=1;exitX=0.5;exitY=0;exitDx=0;exitDy=0;entryX=0.5;entryY=1;entryDx=0;entryDy=0;" edge="1" parent="1" source="idpTYqr38m1hENi_6hJd-7" target="idpTYqr38m1hENi_6hJd-11">
          <mxGeometry relative="1" as="geometry" />
        </mxCell>
        <mxCell id="idpTYqr38m1hENi_6hJd-7" value="" style="shape=trapezoid;perimeter=trapezoidPerimeter;whiteSpace=wrap;html=1;fixedSize=1;rotation=90;fillColor=#dae8fc;strokeColor=#6c8ebf;" vertex="1" parent="1">
          <mxGeometry x="662" y="-660" width="165" height="40" as="geometry" />
        </mxCell>
        <mxCell id="idpTYqr38m1hENi_6hJd-14" style="edgeStyle=orthogonalEdgeStyle;rounded=0;orthogonalLoop=1;jettySize=auto;html=1;exitX=0.5;exitY=0;exitDx=0;exitDy=0;" edge="1" parent="1" source="idpTYqr38m1hENi_6hJd-8" target="idpTYqr38m1hENi_6hJd-12">
          <mxGeometry relative="1" as="geometry" />
        </mxCell>
        <mxCell id="idpTYqr38m1hENi_6hJd-8" value="" style="shape=trapezoid;perimeter=trapezoidPerimeter;whiteSpace=wrap;html=1;fixedSize=1;rotation=90;fillColor=#dae8fc;strokeColor=#6c8ebf;" vertex="1" parent="1">
          <mxGeometry x="446.63" y="-142.87" width="458.75" height="40" as="geometry" />
        </mxCell>
        <mxCell id="idpTYqr38m1hENi_6hJd-10" value="" style="rounded=0;whiteSpace=wrap;html=1;rotation=90;fillColor=#dae8fc;strokeColor=#6c8ebf;" vertex="1" parent="1">
          <mxGeometry x="1110" y="-1040" width="140" height="40" as="geometry" />
        </mxCell>
        <mxCell id="idpTYqr38m1hENi_6hJd-11" value="" style="rounded=0;whiteSpace=wrap;html=1;rotation=90;fillColor=#dae8fc;strokeColor=#6c8ebf;" vertex="1" parent="1">
          <mxGeometry x="1110" y="-660" width="140" height="40" as="geometry" />
        </mxCell>
        <mxCell id="idpTYqr38m1hENi_6hJd-12" value="" style="rounded=0;whiteSpace=wrap;html=1;rotation=90;fillColor=#dae8fc;strokeColor=#6c8ebf;" vertex="1" parent="1">
          <mxGeometry x="1110" y="-142.87" width="140" height="40" as="geometry" />
        </mxCell>
        <mxCell id="idpTYqr38m1hENi_6hJd-13" value="" style="rounded=0;whiteSpace=wrap;html=1;rotation=90;direction=west;fillColor=#dae8fc;strokeColor=#6c8ebf;" vertex="1" parent="1">
          <mxGeometry x="1111" y="260" width="140" height="40" as="geometry" />
        </mxCell>
        <mxCell id="idpTYqr38m1hENi_6hJd-17" value="" style="whiteSpace=wrap;html=1;aspect=fixed;fillColor=#dae8fc;strokeColor=#6c8ebf;" vertex="1" parent="1">
          <mxGeometry x="1570" y="-240" width="160" height="160" as="geometry" />
        </mxCell>
        <mxCell id="idpTYqr38m1hENi_6hJd-18" value="" style="shape=trapezoid;perimeter=trapezoidPerimeter;whiteSpace=wrap;html=1;fixedSize=1;rotation=90;size=50;fillColor=#dae8fc;strokeColor=#6c8ebf;" vertex="1" parent="1">
          <mxGeometry x="2300" y="-710" width="160" height="60" as="geometry" />
        </mxCell>
        <mxCell id="idpTYqr38m1hENi_6hJd-20" value="" style="rounded=0;whiteSpace=wrap;html=1;rotation=90;fillColor=#dae8fc;strokeColor=#6c8ebf;" vertex="1" parent="1">
          <mxGeometry x="2590" y="-700" width="140" height="40" as="geometry" />
        </mxCell>
        <mxCell id="idpTYqr38m1hENi_6hJd-21" value="" style="rounded=0;whiteSpace=wrap;html=1;fillColor=#dae8fc;strokeColor=#6c8ebf;" vertex="1" parent="1">
          <mxGeometry x="2470" y="20" width="370" height="260" as="geometry" />
        </mxCell>
        <mxCell id="idpTYqr38m1hENi_6hJd-22" value="" style="rounded=0;whiteSpace=wrap;html=1;rotation=90;fillColor=#dae8fc;strokeColor=#6c8ebf;" vertex="1" parent="1">
          <mxGeometry x="2940" y="310" width="120" height="40" as="geometry" />
        </mxCell>
        <mxCell id="idpTYqr38m1hENi_6hJd-23" value="" style="shape=trapezoid;perimeter=trapezoidPerimeter;whiteSpace=wrap;html=1;fixedSize=1;rotation=90;size=50;fillColor=#dae8fc;strokeColor=#6c8ebf;" vertex="1" parent="1">
          <mxGeometry x="3190" y="60" width="160" height="60" as="geometry" />
        </mxCell>
        <mxCell id="idpTYqr38m1hENi_6hJd-24" value="" style="rounded=0;whiteSpace=wrap;html=1;fillColor=#dae8fc;strokeColor=#6c8ebf;" vertex="1" parent="1">
          <mxGeometry x="3440" y="-310" width="220" height="60" as="geometry" />
        </mxCell>
        <mxCell id="idpTYqr38m1hENi_6hJd-25" value="" style="shape=trapezoid;perimeter=trapezoidPerimeter;whiteSpace=wrap;html=1;fixedSize=1;rotation=90;size=50;fillColor=#dae8fc;strokeColor=#6c8ebf;" vertex="1" parent="1">
          <mxGeometry x="3722" y="-700" width="160" height="60" as="geometry" />
        </mxCell>
        <mxCell id="idpTYqr38m1hENi_6hJd-26" value="" style="rounded=0;whiteSpace=wrap;html=1;fillColor=#dae8fc;strokeColor=#6c8ebf;" vertex="1" parent="1">
          <mxGeometry x="4350" y="-740" width="380" height="140" as="geometry" />
        </mxCell>
        <mxCell id="MimmkQN_pH5iQWNIVET2-2" value="&lt;div style=&quot;font-size: 23px;&quot;&gt;pc_F&lt;/div&gt;&lt;div style=&quot;font-size: 23px;&quot;&gt;&lt;br&gt;&lt;/div&gt;" style="edgeLabel;html=1;align=center;verticalAlign=middle;resizable=0;points=[];fontSize=23;" connectable="0" vertex="1" parent="1">
          <mxGeometry x="-1060" y="-955" as="geometry" />
        </mxCell>
        <mxCell id="MimmkQN_pH5iQWNIVET2-4" value="" style="endArrow=none;html=1;rounded=0;" edge="1" parent="1">
          <mxGeometry width="50" height="50" relative="1" as="geometry">
            <mxPoint x="-1480" y="-1250" as="sourcePoint" />
            <mxPoint x="361.25" y="-1240" as="targetPoint" />
          </mxGeometry>
        </mxCell>
        <mxCell id="MimmkQN_pH5iQWNIVET2-5" value="" style="endArrow=none;html=1;rounded=0;" edge="1" parent="1">
          <mxGeometry width="50" height="50" relative="1" as="geometry">
            <mxPoint x="360" y="-1000" as="sourcePoint" />
            <mxPoint x="360" y="-1240" as="targetPoint" />
          </mxGeometry>
        </mxCell>
        <mxCell id="MimmkQN_pH5iQWNIVET2-7" value="&lt;div style=&quot;font-size: 23px;&quot;&gt;&lt;br&gt;&lt;/div&gt;" style="edgeLabel;html=1;align=center;verticalAlign=middle;resizable=0;points=[];fontSize=23;rotation=0;" connectable="0" vertex="1" parent="1">
          <mxGeometry x="-1090" y="-390" as="geometry">
            <mxPoint x="-7" y="-56" as="offset" />
          </mxGeometry>
        </mxCell>
        <mxCell id="MimmkQN_pH5iQWNIVET2-8" value="&lt;div style=&quot;forced-color-adjust: none; font-size: 23px;&quot;&gt;rdata&lt;/div&gt;" style="text;whiteSpace=wrap;html=1;" vertex="1" parent="1">
          <mxGeometry x="-1020" y="-475" width="80" height="130" as="geometry" />
        </mxCell>
        <mxCell id="MimmkQN_pH5iQWNIVET2-10" value="" style="endArrow=none;html=1;rounded=0;" edge="1" parent="1">
          <mxGeometry width="50" height="50" relative="1" as="geometry">
            <mxPoint x="910" y="-950" as="sourcePoint" />
            <mxPoint x="910" y="-1360" as="targetPoint" />
          </mxGeometry>
        </mxCell>
        <mxCell id="MimmkQN_pH5iQWNIVET2-11" value="" style="endArrow=classic;html=1;rounded=0;entryX=1;entryY=0.5;entryDx=0;entryDy=0;" edge="1" parent="1" target="idpTYqr38m1hENi_6hJd-6">
          <mxGeometry width="50" height="50" relative="1" as="geometry">
            <mxPoint x="910" y="-955" as="sourcePoint" />
            <mxPoint x="880" y="-1020" as="targetPoint" />
          </mxGeometry>
        </mxCell>
        <mxCell id="MimmkQN_pH5iQWNIVET2-15" value="&lt;font style=&quot;font-size: 30px;&quot;&gt;br_targ_X&lt;/font&gt;" style="text;whiteSpace=wrap;html=1;" vertex="1" parent="1">
          <mxGeometry x="1121" y="-950" width="120" height="60" as="geometry" />
        </mxCell>
        <mxCell id="MimmkQN_pH5iQWNIVET2-16" value="&lt;font style=&quot;font-size: 30px;&quot;&gt;op0_mux_out_X&lt;/font&gt;&lt;div&gt;&lt;font style=&quot;font-size: 30px;&quot;&gt;&lt;br&gt;&lt;/font&gt;&lt;/div&gt;" style="text;whiteSpace=wrap;html=1;" vertex="1" parent="1">
          <mxGeometry x="1100" y="-561.41" width="120" height="60" as="geometry" />
        </mxCell>
        <mxCell id="MimmkQN_pH5iQWNIVET2-17" value="&lt;font style=&quot;forced-color-adjust: none; color: rgb(0, 0, 0); font-family: Helvetica; font-style: normal; font-variant-ligatures: normal; font-variant-caps: normal; font-weight: 400; letter-spacing: normal; orphans: 2; text-align: left; text-indent: 0px; text-transform: none; widows: 2; word-spacing: 0px; -webkit-text-stroke-width: 0px; white-space: normal; background-color: rgb(251, 251, 251); text-decoration-thickness: initial; text-decoration-style: initial; text-decoration-color: initial; font-size: 30px;&quot;&gt;op1&lt;/font&gt;&lt;span style=&quot;font-size: 30px;&quot;&gt;_mux_out_X&lt;/span&gt;" style="text;whiteSpace=wrap;html=1;" vertex="1" parent="1">
          <mxGeometry x="1050" y="-30" width="250" height="60" as="geometry" />
        </mxCell>
        <mxCell id="MimmkQN_pH5iQWNIVET2-18" value="&lt;span style=&quot;font-size: 30px;&quot;&gt;wdata_X&lt;/span&gt;&lt;div&gt;&lt;span style=&quot;font-size: 30px;&quot;&gt;&lt;br&gt;&lt;/span&gt;&lt;/div&gt;" style="text;whiteSpace=wrap;html=1;" vertex="1" parent="1">
          <mxGeometry x="1130" y="360" width="250" height="60" as="geometry" />
        </mxCell>
        <mxCell id="MimmkQN_pH5iQWNIVET2-22" value="" style="endArrow=none;html=1;rounded=0;" edge="1" parent="1">
          <mxGeometry width="50" height="50" relative="1" as="geometry">
            <mxPoint x="-1640" y="-1420" as="sourcePoint" />
            <mxPoint x="1380" y="-1420" as="targetPoint" />
          </mxGeometry>
        </mxCell>
        <mxCell id="MimmkQN_pH5iQWNIVET2-23" value="" style="endArrow=none;html=1;rounded=0;" edge="1" parent="1">
          <mxGeometry width="50" height="50" relative="1" as="geometry">
            <mxPoint x="1380" y="-1000" as="sourcePoint" />
            <mxPoint x="1380" y="-1420" as="targetPoint" />
          </mxGeometry>
        </mxCell>
        <mxCell id="MimmkQN_pH5iQWNIVET2-24" value="" style="endArrow=classic;html=1;rounded=0;entryX=0.623;entryY=-0.086;entryDx=0;entryDy=0;entryPerimeter=0;" edge="1" parent="1" target="idpTYqr38m1hENi_6hJd-10">
          <mxGeometry width="50" height="50" relative="1" as="geometry">
            <mxPoint x="1380" y="-1003" as="sourcePoint" />
            <mxPoint x="1360" y="-1070" as="targetPoint" />
          </mxGeometry>
        </mxCell>
        <mxCell id="MimmkQN_pH5iQWNIVET2-25" value="" style="endArrow=none;html=1;rounded=0;entryX=0.5;entryY=1;entryDx=0;entryDy=0;" edge="1" parent="1">
          <mxGeometry width="50" height="50" relative="1" as="geometry">
            <mxPoint x="-1580" y="-1001" as="sourcePoint" />
            <mxPoint x="-1397.5" y="-1001" as="targetPoint" />
            <Array as="points">
              <mxPoint x="-1520" y="-1001" />
            </Array>
          </mxGeometry>
        </mxCell>
        <mxCell id="MimmkQN_pH5iQWNIVET2-26" value="&lt;span style=&quot;color: rgb(0, 0, 0); font-family: Helvetica; font-size: 30px; font-style: normal; font-variant-ligatures: normal; font-variant-caps: normal; font-weight: 400; letter-spacing: normal; orphans: 2; text-align: center; text-indent: 0px; text-transform: none; widows: 2; word-spacing: 0px; -webkit-text-stroke-width: 0px; white-space: normal; background-color: rgb(251, 251, 251); text-decoration-thickness: initial; text-decoration-style: initial; text-decoration-color: initial; display: inline !important; float: none;&quot;&gt;pc_plus4_D&lt;/span&gt;" style="text;whiteSpace=wrap;html=1;" vertex="1" parent="1">
          <mxGeometry x="-340" y="-985" width="110" height="60" as="geometry" />
        </mxCell>
        <mxCell id="MimmkQN_pH5iQWNIVET2-27" value="&lt;span style=&quot;color: rgb(0, 0, 0); font-family: Helvetica; font-size: 30px; font-style: normal; font-variant-ligatures: normal; font-variant-caps: normal; font-weight: 400; letter-spacing: normal; orphans: 2; text-align: center; text-indent: 0px; text-transform: none; widows: 2; word-spacing: 0px; -webkit-text-stroke-width: 0px; white-space: normal; background-color: rgb(251, 251, 251); text-decoration-thickness: initial; text-decoration-style: initial; text-decoration-color: initial; display: inline !important; float: none;&quot;&gt;pc_D&lt;/span&gt;" style="text;whiteSpace=wrap;html=1;rotation=0;" vertex="1" parent="1">
          <mxGeometry x="-310" y="-720" width="110" height="60" as="geometry" />
        </mxCell>
        <mxCell id="MimmkQN_pH5iQWNIVET2-28" value="&lt;span style=&quot;color: rgb(0, 0, 0); font-family: Helvetica; font-size: 30px; font-style: normal; font-variant-ligatures: normal; font-variant-caps: normal; font-weight: 400; letter-spacing: normal; orphans: 2; text-align: center; text-indent: 0px; text-transform: none; widows: 2; word-spacing: 0px; -webkit-text-stroke-width: 0px; white-space: normal; background-color: rgb(251, 251, 251); text-decoration-thickness: initial; text-decoration-style: initial; text-decoration-color: initial; display: inline !important; float: none;&quot;&gt;ir_D&lt;/span&gt;" style="text;whiteSpace=wrap;html=1;rotation=0;" vertex="1" parent="1">
          <mxGeometry x="-310" y="-340" width="110" height="60" as="geometry" />
        </mxCell>
        <mxCell id="MimmkQN_pH5iQWNIVET2-29" value="" style="triangle;whiteSpace=wrap;html=1;rotation=-90;" vertex="1" parent="1">
          <mxGeometry x="-1080" y="-1030" width="40" height="40" as="geometry" />
        </mxCell>
        <mxCell id="MimmkQN_pH5iQWNIVET2-30" value="" style="triangle;whiteSpace=wrap;html=1;rotation=-90;" vertex="1" parent="1">
          <mxGeometry x="-1080" y="-360" width="40" height="40" as="geometry" />
        </mxCell>
        <mxCell id="MimmkQN_pH5iQWNIVET2-31" value="" style="triangle;whiteSpace=wrap;html=1;rotation=-90;" vertex="1" parent="1">
          <mxGeometry x="-810" y="-260" width="40" height="60" as="geometry" />
        </mxCell>
        <mxCell id="MimmkQN_pH5iQWNIVET2-35" value="" style="triangle;whiteSpace=wrap;html=1;rotation=-90;" vertex="1" parent="1">
          <mxGeometry x="-300" y="-1030" width="40" height="40" as="geometry" />
        </mxCell>
        <mxCell id="MimmkQN_pH5iQWNIVET2-36" value="" style="triangle;whiteSpace=wrap;html=1;rotation=-90;" vertex="1" parent="1">
          <mxGeometry x="-300" y="-760" width="40" height="40" as="geometry" />
        </mxCell>
        <mxCell id="MimmkQN_pH5iQWNIVET2-41" value="" style="endArrow=none;html=1;rounded=0;" edge="1" parent="1" source="zn3MZnFg3po8sbIGN5-C-4">
          <mxGeometry width="50" height="50" relative="1" as="geometry">
            <mxPoint x="-180" y="-680" as="sourcePoint" />
            <mxPoint x="-180" y="-1050" as="targetPoint" />
          </mxGeometry>
        </mxCell>
        <mxCell id="MimmkQN_pH5iQWNIVET2-42" value="&lt;font color=&quot;#3333ff&quot;&gt;&lt;font style=&quot;forced-color-adjust: none; font-family: Helvetica; font-style: normal; font-variant-ligatures: normal; font-variant-caps: normal; font-weight: 400; letter-spacing: normal; orphans: 2; text-align: left; text-indent: 0px; text-transform: none; widows: 2; word-spacing: 0px; -webkit-text-stroke-width: 0px; white-space: normal; background-color: rgb(251, 251, 251); text-decoration-thickness: initial; text-decoration-style: initial; text-decoration-color: initial; font-size: 30px;&quot;&gt;op0_mux_sel_D&lt;/font&gt;&lt;br class=&quot;Apple-interchange-newline&quot;&gt;&lt;/font&gt;&lt;div&gt;&lt;font style=&quot;forced-color-adjust: none; color: rgb(0, 0, 0); font-family: Helvetica; font-style: normal; font-variant-ligatures: normal; font-variant-caps: normal; font-weight: 400; letter-spacing: normal; orphans: 2; text-align: left; text-indent: 0px; text-transform: none; widows: 2; word-spacing: 0px; -webkit-text-stroke-width: 0px; white-space: normal; background-color: rgb(251, 251, 251); text-decoration-thickness: initial; text-decoration-style: initial; text-decoration-color: initial; font-size: 30px;&quot;&gt;&lt;br&gt;&lt;/font&gt;&lt;/div&gt;" style="text;whiteSpace=wrap;html=1;" vertex="1" parent="1">
          <mxGeometry x="640" y="-470" width="250" height="60" as="geometry" />
        </mxCell>
        <mxCell id="MimmkQN_pH5iQWNIVET2-44" value="" style="endArrow=classic;html=1;rounded=0;" edge="1" parent="1">
          <mxGeometry width="50" height="50" relative="1" as="geometry">
            <mxPoint x="-170" y="-740" as="sourcePoint" />
            <mxPoint y="-740" as="targetPoint" />
          </mxGeometry>
        </mxCell>
        <mxCell id="MimmkQN_pH5iQWNIVET2-48" value="" style="endArrow=none;html=1;rounded=0;" edge="1" parent="1">
          <mxGeometry width="50" height="50" relative="1" as="geometry">
            <mxPoint x="-250" y="-400" as="sourcePoint" />
            <mxPoint x="-110" y="-400" as="targetPoint" />
          </mxGeometry>
        </mxCell>
        <mxCell id="MimmkQN_pH5iQWNIVET2-49" value="" style="endArrow=none;html=1;rounded=0;" edge="1" parent="1">
          <mxGeometry width="50" height="50" relative="1" as="geometry">
            <mxPoint x="-110" y="-400" as="sourcePoint" />
            <mxPoint x="-110" y="-990" as="targetPoint" />
          </mxGeometry>
        </mxCell>
        <mxCell id="MimmkQN_pH5iQWNIVET2-50" value="" style="endArrow=classic;html=1;rounded=0;" edge="1" parent="1">
          <mxGeometry width="50" height="50" relative="1" as="geometry">
            <mxPoint x="-110" y="-990" as="sourcePoint" />
            <mxPoint y="-990" as="targetPoint" />
          </mxGeometry>
        </mxCell>
        <mxCell id="MimmkQN_pH5iQWNIVET2-56" value="&lt;font style=&quot;font-size: 20px;&quot;&gt;imm_uj&lt;/font&gt;" style="edgeLabel;html=1;align=center;verticalAlign=middle;resizable=0;points=[];" connectable="0" vertex="1" parent="MimmkQN_pH5iQWNIVET2-50">
          <mxGeometry x="0.1888" y="-4" relative="1" as="geometry">
            <mxPoint x="-15" y="16" as="offset" />
          </mxGeometry>
        </mxCell>
        <mxCell id="MimmkQN_pH5iQWNIVET2-52" value="" style="endArrow=classic;html=1;rounded=0;entryX=0;entryY=0.25;entryDx=0;entryDy=0;" edge="1" parent="1" target="h3CtUdWNvLVvWNDMPcVa-84">
          <mxGeometry width="50" height="50" relative="1" as="geometry">
            <mxPoint x="-110" y="-795" as="sourcePoint" />
            <mxPoint x="-60" y="-830" as="targetPoint" />
          </mxGeometry>
        </mxCell>
        <mxCell id="MimmkQN_pH5iQWNIVET2-53" value="" style="endArrow=classic;html=1;rounded=0;entryX=1;entryY=0;entryDx=0;entryDy=0;" edge="1" parent="1" target="MimmkQN_pH5iQWNIVET2-58">
          <mxGeometry width="50" height="50" relative="1" as="geometry">
            <mxPoint x="-110" y="-478" as="sourcePoint" />
            <mxPoint x="-60" y="-500" as="targetPoint" />
          </mxGeometry>
        </mxCell>
        <mxCell id="MimmkQN_pH5iQWNIVET2-55" value="" style="endArrow=classic;html=1;rounded=0;" edge="1" parent="1">
          <mxGeometry width="50" height="50" relative="1" as="geometry">
            <mxPoint x="-110" y="-440" as="sourcePoint" />
            <mxPoint x="-3" y="-439" as="targetPoint" />
          </mxGeometry>
        </mxCell>
        <mxCell id="MimmkQN_pH5iQWNIVET2-57" value="&lt;font style=&quot;font-size: 20px;&quot;&gt;imm_sb&lt;/font&gt;&lt;div&gt;&lt;font style=&quot;font-size: 20px;&quot;&gt;&lt;br&gt;&lt;/font&gt;&lt;/div&gt;" style="edgeLabel;html=1;align=center;verticalAlign=middle;resizable=0;points=[];" connectable="0" vertex="1" parent="1">
          <mxGeometry x="-50.0046153846157" y="-955" as="geometry">
            <mxPoint x="-12" y="188" as="offset" />
          </mxGeometry>
        </mxCell>
        <mxCell id="MimmkQN_pH5iQWNIVET2-58" value="&lt;font style=&quot;forced-color-adjust: none; color: rgb(0, 0, 0); font-family: Helvetica; font-style: normal; font-variant-ligatures: normal; font-variant-caps: normal; font-weight: 400; letter-spacing: normal; orphans: 2; text-align: center; text-indent: 0px; text-transform: none; widows: 2; word-spacing: 0px; -webkit-text-stroke-width: 0px; white-space: nowrap; text-decoration-thickness: initial; text-decoration-style: initial; text-decoration-color: initial; font-size: 20px;&quot;&gt;rs_1&lt;/font&gt;&lt;br class=&quot;Apple-interchange-newline&quot;&gt;&lt;div&gt;&lt;font style=&quot;forced-color-adjust: none; color: rgb(0, 0, 0); font-family: Helvetica; font-style: normal; font-variant-ligatures: normal; font-variant-caps: normal; font-weight: 400; letter-spacing: normal; orphans: 2; text-align: center; text-indent: 0px; text-transform: none; widows: 2; word-spacing: 0px; -webkit-text-stroke-width: 0px; white-space: nowrap; text-decoration-thickness: initial; text-decoration-style: initial; text-decoration-color: initial; font-size: 20px;&quot;&gt;&lt;br&gt;&lt;/font&gt;&lt;/div&gt;" style="text;whiteSpace=wrap;html=1;" vertex="1" parent="1">
          <mxGeometry x="-105" y="-480" width="100" height="50" as="geometry" />
        </mxCell>
        <mxCell id="MimmkQN_pH5iQWNIVET2-59" value="&lt;font style=&quot;forced-color-adjust: none; color: rgb(0, 0, 0); font-family: Helvetica; font-style: normal; font-variant-ligatures: normal; font-variant-caps: normal; font-weight: 400; letter-spacing: normal; orphans: 2; text-indent: 0px; text-transform: none; widows: 2; word-spacing: 0px; -webkit-text-stroke-width: 0px; white-space: nowrap; background-color: rgb(251, 251, 251); text-decoration-thickness: initial; text-decoration-style: initial; text-decoration-color: initial; text-align: center; font-size: 20px;&quot;&gt;rs_2&lt;/font&gt;" style="text;whiteSpace=wrap;html=1;" vertex="1" parent="1">
          <mxGeometry x="-100" y="-430" width="70" height="50" as="geometry" />
        </mxCell>
        <mxCell id="MimmkQN_pH5iQWNIVET2-60" value="" style="endArrow=classic;html=1;rounded=0;entryX=0.986;entryY=0.644;entryDx=0;entryDy=0;entryPerimeter=0;" edge="1" parent="1" target="h3CtUdWNvLVvWNDMPcVa-77">
          <mxGeometry width="50" height="50" relative="1" as="geometry">
            <mxPoint x="360" y="-1000" as="sourcePoint" />
            <mxPoint x="340" y="-1050" as="targetPoint" />
          </mxGeometry>
        </mxCell>
        <mxCell id="MimmkQN_pH5iQWNIVET2-64" value="" style="endArrow=none;html=1;rounded=0;" edge="1" parent="1">
          <mxGeometry width="50" height="50" relative="1" as="geometry">
            <mxPoint x="320" y="-870" as="sourcePoint" />
            <mxPoint x="1040" y="-870" as="targetPoint" />
          </mxGeometry>
        </mxCell>
        <mxCell id="MimmkQN_pH5iQWNIVET2-65" value="" style="endArrow=none;html=1;rounded=0;" edge="1" parent="1">
          <mxGeometry width="50" height="50" relative="1" as="geometry">
            <mxPoint x="1040" y="-870" as="sourcePoint" />
            <mxPoint x="1040" y="-1000" as="targetPoint" />
          </mxGeometry>
        </mxCell>
        <mxCell id="MimmkQN_pH5iQWNIVET2-66" value="" style="endArrow=classic;html=1;rounded=0;entryX=0.657;entryY=1;entryDx=0;entryDy=0;entryPerimeter=0;" edge="1" parent="1" target="idpTYqr38m1hENi_6hJd-10">
          <mxGeometry width="50" height="50" relative="1" as="geometry">
            <mxPoint x="1040" y="-1000" as="sourcePoint" />
            <mxPoint x="1090" y="-1050" as="targetPoint" />
          </mxGeometry>
        </mxCell>
        <mxCell id="MimmkQN_pH5iQWNIVET2-67" value="" style="endArrow=none;html=1;rounded=0;" edge="1" parent="1">
          <mxGeometry width="50" height="50" relative="1" as="geometry">
            <mxPoint x="280" y="-760" as="sourcePoint" />
            <mxPoint x="320" y="-760" as="targetPoint" />
          </mxGeometry>
        </mxCell>
        <mxCell id="MimmkQN_pH5iQWNIVET2-68" value="" style="endArrow=none;html=1;rounded=0;" edge="1" parent="1">
          <mxGeometry width="50" height="50" relative="1" as="geometry">
            <mxPoint x="320" y="-760" as="sourcePoint" />
            <mxPoint x="320" y="-870" as="targetPoint" />
          </mxGeometry>
        </mxCell>
        <mxCell id="MimmkQN_pH5iQWNIVET2-71" value="" style="endArrow=none;html=1;rounded=0;" edge="1" parent="1" target="VG8MHKJ1vHQQKtuOWax9-5">
          <mxGeometry width="50" height="50" relative="1" as="geometry">
            <mxPoint x="-110" y="-120" as="sourcePoint" />
            <mxPoint x="-110" y="-400" as="targetPoint" />
          </mxGeometry>
        </mxCell>
        <mxCell id="MimmkQN_pH5iQWNIVET2-72" value="" style="triangle;whiteSpace=wrap;html=1;rotation=-90;" vertex="1" parent="1">
          <mxGeometry x="1160" y="-610" width="40" height="40" as="geometry" />
        </mxCell>
        <mxCell id="MimmkQN_pH5iQWNIVET2-73" value="" style="triangle;whiteSpace=wrap;html=1;rotation=-90;" vertex="1" parent="1">
          <mxGeometry x="1160" y="-990" width="40" height="40" as="geometry" />
        </mxCell>
        <mxCell id="MimmkQN_pH5iQWNIVET2-74" value="" style="triangle;whiteSpace=wrap;html=1;rotation=-90;" vertex="1" parent="1">
          <mxGeometry x="1160" y="-90" width="40" height="40" as="geometry" />
        </mxCell>
        <mxCell id="MimmkQN_pH5iQWNIVET2-75" value="" style="triangle;whiteSpace=wrap;html=1;rotation=-90;" vertex="1" parent="1">
          <mxGeometry x="1160" y="310" width="40" height="40" as="geometry" />
        </mxCell>
        <mxCell id="MimmkQN_pH5iQWNIVET2-77" value="" style="endArrow=none;html=1;rounded=0;exitX=0.5;exitY=0;exitDx=0;exitDy=0;" edge="1" parent="1" source="h3CtUdWNvLVvWNDMPcVa-10">
          <mxGeometry width="50" height="50" relative="1" as="geometry">
            <mxPoint x="-260" y="-760" as="sourcePoint" />
            <mxPoint x="-140" y="-780" as="targetPoint" />
          </mxGeometry>
        </mxCell>
        <mxCell id="MimmkQN_pH5iQWNIVET2-78" value="" style="endArrow=none;html=1;rounded=0;" edge="1" parent="1">
          <mxGeometry width="50" height="50" relative="1" as="geometry">
            <mxPoint x="-140" y="-640" as="sourcePoint" />
            <mxPoint x="-140" y="-780" as="targetPoint" />
          </mxGeometry>
        </mxCell>
        <mxCell id="MimmkQN_pH5iQWNIVET2-80" value="" style="endArrow=classic;html=1;rounded=0;" edge="1" parent="1">
          <mxGeometry width="50" height="50" relative="1" as="geometry">
            <mxPoint x="360" y="-610.71" as="sourcePoint" />
            <mxPoint x="720" y="-610" as="targetPoint" />
          </mxGeometry>
        </mxCell>
        <mxCell id="MimmkQN_pH5iQWNIVET2-82" value="" style="endArrow=classic;html=1;rounded=0;" edge="1" parent="1">
          <mxGeometry width="50" height="50" relative="1" as="geometry">
            <mxPoint x="510" y="-581.4300000000001" as="sourcePoint" />
            <mxPoint x="720" y="-581" as="targetPoint" />
          </mxGeometry>
        </mxCell>
        <mxCell id="MimmkQN_pH5iQWNIVET2-83" value="&lt;font style=&quot;font-size: 35px;&quot;&gt;0&lt;/font&gt;" style="edgeLabel;html=1;align=center;verticalAlign=middle;resizable=0;points=[];" connectable="0" vertex="1" parent="MimmkQN_pH5iQWNIVET2-82">
          <mxGeometry x="-0.2642" relative="1" as="geometry">
            <mxPoint x="-64" as="offset" />
          </mxGeometry>
        </mxCell>
        <mxCell id="MimmkQN_pH5iQWNIVET2-85" value="" style="endArrow=classic;html=1;rounded=0;exitX=0.399;exitY=-0.026;exitDx=0;exitDy=0;exitPerimeter=0;" edge="1" parent="1">
          <mxGeometry width="50" height="50" relative="1" as="geometry">
            <mxPoint x="743.91" y="-462.9700000000004" as="sourcePoint" />
            <mxPoint x="744.62" y="-561.41" as="targetPoint" />
            <Array as="points">
              <mxPoint x="744.62" y="-511.41" />
            </Array>
          </mxGeometry>
        </mxCell>
        <mxCell id="MimmkQN_pH5iQWNIVET2-90" value="" style="endArrow=none;html=1;rounded=0;" edge="1" parent="1">
          <mxGeometry width="50" height="50" relative="1" as="geometry">
            <mxPoint x="-170" y="-680" as="sourcePoint" />
            <mxPoint x="680" y="-680" as="targetPoint" />
          </mxGeometry>
        </mxCell>
        <mxCell id="MimmkQN_pH5iQWNIVET2-95" value="" style="endArrow=none;html=1;rounded=0;" edge="1" parent="1">
          <mxGeometry width="50" height="50" relative="1" as="geometry">
            <mxPoint x="-140" y="-639.7" as="sourcePoint" />
            <mxPoint x="680" y="-640" as="targetPoint" />
          </mxGeometry>
        </mxCell>
        <mxCell id="MimmkQN_pH5iQWNIVET2-97" value="" style="endArrow=classic;html=1;rounded=0;" edge="1" parent="1">
          <mxGeometry width="50" height="50" relative="1" as="geometry">
            <mxPoint x="480" y="-320" as="sourcePoint" />
            <mxPoint x="650" y="-320" as="targetPoint" />
          </mxGeometry>
        </mxCell>
        <mxCell id="MimmkQN_pH5iQWNIVET2-98" value="" style="endArrow=classic;html=1;rounded=0;" edge="1" parent="1">
          <mxGeometry width="50" height="50" relative="1" as="geometry">
            <mxPoint x="-110" y="-280" as="sourcePoint" />
            <mxPoint x="650" y="-280" as="targetPoint" />
          </mxGeometry>
        </mxCell>
        <mxCell id="MimmkQN_pH5iQWNIVET2-99" value="" style="endArrow=classic;html=1;rounded=0;" edge="1" parent="1">
          <mxGeometry width="50" height="50" relative="1" as="geometry">
            <mxPoint x="-110" y="-240" as="sourcePoint" />
            <mxPoint x="650" y="-240" as="targetPoint" />
          </mxGeometry>
        </mxCell>
        <mxCell id="MimmkQN_pH5iQWNIVET2-100" value="" style="endArrow=classic;html=1;rounded=0;" edge="1" parent="1">
          <mxGeometry width="50" height="50" relative="1" as="geometry">
            <mxPoint x="-110" y="-200" as="sourcePoint" />
            <mxPoint x="650" y="-199" as="targetPoint" />
          </mxGeometry>
        </mxCell>
        <mxCell id="MimmkQN_pH5iQWNIVET2-101" value="" style="endArrow=classic;html=1;rounded=0;" edge="1" parent="1">
          <mxGeometry width="50" height="50" relative="1" as="geometry">
            <mxPoint x="-110" y="-162.5" as="sourcePoint" />
            <mxPoint x="650" y="-157.5" as="targetPoint" />
          </mxGeometry>
        </mxCell>
        <mxCell id="MimmkQN_pH5iQWNIVET2-103" value="" style="endArrow=classic;html=1;rounded=0;" edge="1" parent="1">
          <mxGeometry width="50" height="50" relative="1" as="geometry">
            <mxPoint x="-110" y="-120" as="sourcePoint" />
            <mxPoint x="650" y="-120" as="targetPoint" />
          </mxGeometry>
        </mxCell>
        <mxCell id="MimmkQN_pH5iQWNIVET2-105" value="" style="endArrow=classic;html=1;rounded=0;" edge="1" parent="1">
          <mxGeometry width="50" height="50" relative="1" as="geometry">
            <mxPoint x="680" y="-640" as="sourcePoint" />
            <mxPoint x="720" y="-640" as="targetPoint" />
          </mxGeometry>
        </mxCell>
        <mxCell id="MimmkQN_pH5iQWNIVET2-107" value="" style="endArrow=classic;html=1;rounded=0;" edge="1" parent="1">
          <mxGeometry width="50" height="50" relative="1" as="geometry">
            <mxPoint x="680" y="-680" as="sourcePoint" />
            <mxPoint x="720" y="-680" as="targetPoint" />
          </mxGeometry>
        </mxCell>
        <mxCell id="MimmkQN_pH5iQWNIVET2-108" value="" style="endArrow=classic;html=1;rounded=0;" edge="1" parent="1">
          <mxGeometry width="50" height="50" relative="1" as="geometry">
            <mxPoint x="390" y="50" as="sourcePoint" />
            <mxPoint x="650" y="50" as="targetPoint" />
          </mxGeometry>
        </mxCell>
        <mxCell id="MimmkQN_pH5iQWNIVET2-109" value="&lt;font style=&quot;font-size: 35px;&quot;&gt;0&lt;/font&gt;" style="edgeLabel;html=1;align=center;verticalAlign=middle;resizable=0;points=[];" connectable="0" vertex="1" parent="MimmkQN_pH5iQWNIVET2-108">
          <mxGeometry x="0.2457" y="-1" relative="1" as="geometry">
            <mxPoint x="-152" as="offset" />
          </mxGeometry>
        </mxCell>
        <mxCell id="MimmkQN_pH5iQWNIVET2-112" value="" style="endArrow=classic;html=1;rounded=0;" edge="1" parent="1">
          <mxGeometry width="50" height="50" relative="1" as="geometry">
            <mxPoint x="680" y="230" as="sourcePoint" />
            <mxPoint x="680" y="100" as="targetPoint" />
          </mxGeometry>
        </mxCell>
        <mxCell id="MimmkQN_pH5iQWNIVET2-113" value="&lt;font color=&quot;#3333ff&quot;&gt;&lt;font style=&quot;forced-color-adjust: none; font-family: Helvetica; font-style: normal; font-variant-ligatures: normal; font-variant-caps: normal; font-weight: 400; letter-spacing: normal; orphans: 2; text-align: left; text-indent: 0px; text-transform: none; widows: 2; word-spacing: 0px; -webkit-text-stroke-width: 0px; white-space: normal; background-color: rgb(251, 251, 251); text-decoration-thickness: initial; text-decoration-style: initial; text-decoration-color: initial; font-size: 30px;&quot;&gt;op1_mux_sel_D&lt;/font&gt;&lt;br class=&quot;Apple-interchange-newline&quot;&gt;&lt;/font&gt;&lt;div&gt;&lt;font style=&quot;forced-color-adjust: none; color: rgb(0, 0, 0); font-family: Helvetica; font-style: normal; font-variant-ligatures: normal; font-variant-caps: normal; font-weight: 400; letter-spacing: normal; orphans: 2; text-align: left; text-indent: 0px; text-transform: none; widows: 2; word-spacing: 0px; -webkit-text-stroke-width: 0px; white-space: normal; background-color: rgb(251, 251, 251); text-decoration-thickness: initial; text-decoration-style: initial; text-decoration-color: initial; font-size: 30px;&quot;&gt;&lt;br&gt;&lt;/font&gt;&lt;/div&gt;" style="text;whiteSpace=wrap;html=1;" vertex="1" parent="1">
          <mxGeometry x="570" y="220" width="250" height="60" as="geometry" />
        </mxCell>
        <mxCell id="MimmkQN_pH5iQWNIVET2-119" value="&lt;span style=&quot;color: rgb(0, 0, 0); font-family: Helvetica; font-size: 23px; font-style: normal; font-variant-ligatures: normal; font-variant-caps: normal; font-weight: 400; letter-spacing: normal; orphans: 2; text-align: left; text-indent: 0px; text-transform: none; widows: 2; word-spacing: 0px; -webkit-text-stroke-width: 0px; white-space: normal; background-color: rgb(251, 251, 251); text-decoration-thickness: initial; text-decoration-style: initial; text-decoration-color: initial; display: inline !important; float: none;&quot;&gt;add&lt;/span&gt;" style="text;whiteSpace=wrap;html=1;" vertex="1" parent="1">
          <mxGeometry x="-1155" y="-475" width="90" height="50" as="geometry" />
        </mxCell>
        <mxCell id="MimmkQN_pH5iQWNIVET2-120" value="" style="endArrow=none;html=1;rounded=0;" edge="1" parent="1">
          <mxGeometry width="50" height="50" relative="1" as="geometry">
            <mxPoint x="-880" y="-280" as="sourcePoint" />
            <mxPoint x="-880" y="-400" as="targetPoint" />
          </mxGeometry>
        </mxCell>
        <mxCell id="MimmkQN_pH5iQWNIVET2-121" value="" style="endArrow=classic;html=1;rounded=0;entryX=0.403;entryY=0.983;entryDx=0;entryDy=0;entryPerimeter=0;" edge="1" parent="1" target="h3CtUdWNvLVvWNDMPcVa-56">
          <mxGeometry width="50" height="50" relative="1" as="geometry">
            <mxPoint x="-880" y="-280" as="sourcePoint" />
            <mxPoint x="-830" y="-330" as="targetPoint" />
          </mxGeometry>
        </mxCell>
        <mxCell id="MimmkQN_pH5iQWNIVET2-122" value="" style="endArrow=none;dashed=1;html=1;strokeWidth=5;rounded=0;" edge="1" parent="1">
          <mxGeometry width="50" height="50" relative="1" as="geometry">
            <mxPoint x="-1067.5" y="680" as="sourcePoint" />
            <mxPoint x="-1052.5" y="-1560" as="targetPoint" />
          </mxGeometry>
        </mxCell>
        <mxCell id="MimmkQN_pH5iQWNIVET2-129" value="" style="endArrow=none;dashed=1;html=1;strokeWidth=5;rounded=0;" edge="1" parent="1" target="h3CtUdWNvLVvWNDMPcVa-12">
          <mxGeometry width="50" height="50" relative="1" as="geometry">
            <mxPoint x="-281" y="680" as="sourcePoint" />
            <mxPoint x="-281.00000000000006" y="-1451.25" as="targetPoint" />
          </mxGeometry>
        </mxCell>
        <mxCell id="h3CtUdWNvLVvWNDMPcVa-12" value="" style="rounded=0;whiteSpace=wrap;html=1;rotation=90;fillColor=#dae8fc;strokeColor=#6c8ebf;" vertex="1" parent="1">
          <mxGeometry x="-345" y="-425" width="120" height="40" as="geometry" />
        </mxCell>
        <mxCell id="MimmkQN_pH5iQWNIVET2-130" value="" style="triangle;whiteSpace=wrap;html=1;rotation=-90;" vertex="1" parent="1">
          <mxGeometry x="-305" y="-380" width="40" height="40" as="geometry" />
        </mxCell>
        <mxCell id="oXpKcVIRyjbRH13NVvt_-4" value="&lt;font style=&quot;font-size: 48px;&quot;&gt;alu&lt;/font&gt;" style="text;whiteSpace=wrap;html=1;" vertex="1" parent="1">
          <mxGeometry x="1654" y="-710" width="120" height="60" as="geometry" />
        </mxCell>
        <mxCell id="oXpKcVIRyjbRH13NVvt_-6" value="" style="endArrow=classic;html=1;rounded=0;" edge="1" parent="1">
          <mxGeometry width="50" height="50" relative="1" as="geometry">
            <mxPoint x="1440" y="-1080" as="sourcePoint" />
            <mxPoint x="1650" y="-1080" as="targetPoint" />
          </mxGeometry>
        </mxCell>
        <mxCell id="oXpKcVIRyjbRH13NVvt_-7" value="" style="endArrow=none;html=1;rounded=0;" edge="1" parent="1">
          <mxGeometry width="50" height="50" relative="1" as="geometry">
            <mxPoint x="1200" y="-640" as="sourcePoint" />
            <mxPoint x="1440" y="-640" as="targetPoint" />
          </mxGeometry>
        </mxCell>
        <mxCell id="oXpKcVIRyjbRH13NVvt_-8" value="" style="endArrow=none;html=1;rounded=0;" edge="1" parent="1" source="VG8MHKJ1vHQQKtuOWax9-9">
          <mxGeometry width="50" height="50" relative="1" as="geometry">
            <mxPoint x="1440" y="-640" as="sourcePoint" />
            <mxPoint x="1440" y="-1080" as="targetPoint" />
          </mxGeometry>
        </mxCell>
        <mxCell id="oXpKcVIRyjbRH13NVvt_-9" value="" style="endArrow=none;html=1;rounded=0;" edge="1" parent="1">
          <mxGeometry width="50" height="50" relative="1" as="geometry">
            <mxPoint x="1440" y="-160" as="sourcePoint" />
            <mxPoint x="1440" y="-640" as="targetPoint" />
          </mxGeometry>
        </mxCell>
        <mxCell id="oXpKcVIRyjbRH13NVvt_-11" value="" style="endArrow=classic;html=1;rounded=0;entryX=0;entryY=0.5;entryDx=0;entryDy=0;" edge="1" parent="1" target="idpTYqr38m1hENi_6hJd-17">
          <mxGeometry width="50" height="50" relative="1" as="geometry">
            <mxPoint x="1440" y="-160" as="sourcePoint" />
            <mxPoint x="1490" y="-210" as="targetPoint" />
          </mxGeometry>
        </mxCell>
        <mxCell id="oXpKcVIRyjbRH13NVvt_-12" value="" style="endArrow=classic;html=1;rounded=0;" edge="1" parent="1">
          <mxGeometry width="50" height="50" relative="1" as="geometry">
            <mxPoint x="1440" y="-870" as="sourcePoint" />
            <mxPoint x="1600" y="-870" as="targetPoint" />
          </mxGeometry>
        </mxCell>
        <mxCell id="oXpKcVIRyjbRH13NVvt_-13" value="" style="endArrow=none;html=1;rounded=0;" edge="1" parent="1" target="VG8MHKJ1vHQQKtuOWax9-8">
          <mxGeometry width="50" height="50" relative="1" as="geometry">
            <mxPoint x="1200" y="-120" as="sourcePoint" />
            <mxPoint x="1400" y="-120" as="targetPoint" />
          </mxGeometry>
        </mxCell>
        <mxCell id="oXpKcVIRyjbRH13NVvt_-14" value="" style="endArrow=none;html=1;rounded=0;" edge="1" parent="1">
          <mxGeometry width="50" height="50" relative="1" as="geometry">
            <mxPoint x="1400" y="-120" as="sourcePoint" />
            <mxPoint x="1400" y="-560" as="targetPoint" />
          </mxGeometry>
        </mxCell>
        <mxCell id="oXpKcVIRyjbRH13NVvt_-15" value="" style="endArrow=classic;html=1;rounded=0;" edge="1" parent="1">
          <mxGeometry width="50" height="50" relative="1" as="geometry">
            <mxPoint x="1400" y="-560" as="sourcePoint" />
            <mxPoint x="1590" y="-559" as="targetPoint" />
          </mxGeometry>
        </mxCell>
        <mxCell id="oXpKcVIRyjbRH13NVvt_-16" value="" style="endArrow=classic;html=1;rounded=0;entryX=0;entryY=0.75;entryDx=0;entryDy=0;" edge="1" parent="1" target="idpTYqr38m1hENi_6hJd-17">
          <mxGeometry width="50" height="50" relative="1" as="geometry">
            <mxPoint x="1400" y="-120" as="sourcePoint" />
            <mxPoint x="1450" y="-170" as="targetPoint" />
          </mxGeometry>
        </mxCell>
        <mxCell id="oXpKcVIRyjbRH13NVvt_-17" value="&lt;span style=&quot;font-size: 30px;&quot;&gt;imuldiv&lt;/span&gt;&lt;div&gt;&lt;span style=&quot;font-size: 30px;&quot;&gt;&lt;br&gt;&lt;/span&gt;&lt;div&gt;&lt;span style=&quot;font-size: 30px;&quot;&gt;&lt;br&gt;&lt;/span&gt;&lt;/div&gt;&lt;/div&gt;" style="text;whiteSpace=wrap;html=1;" vertex="1" parent="1">
          <mxGeometry x="1600" y="-180" width="250" height="60" as="geometry" />
        </mxCell>
        <mxCell id="oXpKcVIRyjbRH13NVvt_-18" value="&lt;span style=&quot;font-size: 30px;&quot;&gt;&amp;nbsp; &amp;nbsp; &amp;nbsp; md_mux&lt;/span&gt;&lt;div&gt;&lt;span style=&quot;font-size: 30px;&quot;&gt;&lt;br&gt;&lt;/span&gt;&lt;/div&gt;" style="text;whiteSpace=wrap;html=1;fillColor=#dae8fc;strokeColor=#6c8ebf;" vertex="1" parent="1">
          <mxGeometry x="2190" y="-290" width="250" height="60" as="geometry" />
        </mxCell>
        <mxCell id="oXpKcVIRyjbRH13NVvt_-19" value="&lt;div&gt;&lt;span style=&quot;font-size: 30px;&quot;&gt;alu_out_M&lt;/span&gt;&lt;/div&gt;" style="text;whiteSpace=wrap;html=1;" vertex="1" parent="1">
          <mxGeometry x="2600" y="-600" width="250" height="60" as="geometry" />
        </mxCell>
        <mxCell id="oXpKcVIRyjbRH13NVvt_-20" value="&lt;div&gt;&lt;span style=&quot;font-size: 30px;&quot;&gt;subword&lt;/span&gt;&lt;/div&gt;&lt;div&gt;&lt;span style=&quot;font-size: 30px;&quot;&gt;&lt;br&gt;&lt;/span&gt;&lt;/div&gt;" style="text;whiteSpace=wrap;html=1;" vertex="1" parent="1">
          <mxGeometry x="3490" y="-300" width="250" height="60" as="geometry" />
        </mxCell>
        <mxCell id="oXpKcVIRyjbRH13NVvt_-21" value="&lt;span style=&quot;font-size: 30px;&quot;&gt;result_W&lt;/span&gt;&lt;div&gt;&lt;span style=&quot;font-size: 30px;&quot;&gt;&lt;br&gt;&lt;/span&gt;&lt;/div&gt;" style="text;whiteSpace=wrap;html=1;" vertex="1" parent="1">
          <mxGeometry x="4000" y="-590" width="250" height="60" as="geometry" />
        </mxCell>
        <mxCell id="oXpKcVIRyjbRH13NVvt_-22" value="" style="rounded=0;whiteSpace=wrap;html=1;rotation=90;fillColor=#dae8fc;strokeColor=#6c8ebf;" vertex="1" parent="1">
          <mxGeometry x="3980" y="-692" width="140" height="40" as="geometry" />
        </mxCell>
        <mxCell id="oXpKcVIRyjbRH13NVvt_-24" value="&lt;span style=&quot;font-size: 30px;&quot;&gt;regfile(write)&lt;/span&gt;&lt;div&gt;&lt;span style=&quot;font-size: 30px;&quot;&gt;&lt;br&gt;&lt;/span&gt;&lt;/div&gt;" style="text;whiteSpace=wrap;html=1;" vertex="1" parent="1">
          <mxGeometry x="4450" y="-702" width="250" height="60" as="geometry" />
        </mxCell>
        <mxCell id="oXpKcVIRyjbRH13NVvt_-25" value="&lt;div&gt;&lt;span style=&quot;font-size: 30px;&quot;&gt;addr&lt;/span&gt;&lt;/div&gt;" style="text;whiteSpace=wrap;html=1;" vertex="1" parent="1">
          <mxGeometry x="2490" y="40" width="250" height="60" as="geometry" />
        </mxCell>
        <mxCell id="oXpKcVIRyjbRH13NVvt_-26" value="&lt;div&gt;&lt;span style=&quot;font-size: 30px;&quot;&gt;wdata&lt;/span&gt;&lt;span style=&quot;color: rgba(0, 0, 0, 0); font-family: monospace; font-size: 0px; text-wrap: nowrap; background-color: initial;&quot;&gt;%3CmxGraphModel%3E%3Croot%3E%3CmxCell%20id%3D%220%22%2F%3E%3CmxCell%20id%3D%221%22%20parent%3D%220%22%2F%3E%3CmxCell%20id%3D%222%22%20value%3D%22%26lt%3Bdiv%26gt%3B%26lt%3Bspan%20style%3D%26quot%3Bfont-size%3A%2030px%3B%26quot%3B%26gt%3Bsubword%26lt%3B%2Fspan%26gt%3B%26lt%3B%2Fdiv%26gt%3B%26lt%3Bdiv%26gt%3B%26lt%3Bspan%20style%3D%26quot%3Bfont-size%3A%2030px%3B%26quot%3B%26gt%3B%26lt%3Bbr%26gt%3B%26lt%3B%2Fspan%26gt%3B%26lt%3B%2Fdiv%26gt%3B%22%20style%3D%22text%3BwhiteSpace%3Dwrap%3Bhtml%3D1%3B%22%20vertex%3D%221%22%20parent%3D%221%22%3E%3CmxGeometry%20x%3D%222590%22%20y%3D%2240%22%20width%3D%22250%22%20height%3D%2260%22%20as%3D%22geometry%22%2F%3E%3C%2FmxCell%3E%3C%2Froot%3E%3C%2FmxGraphModel%3E&lt;/span&gt;&lt;/div&gt;" style="text;whiteSpace=wrap;html=1;" vertex="1" parent="1">
          <mxGeometry x="2490" y="100" width="250" height="60" as="geometry" />
        </mxCell>
        <mxCell id="oXpKcVIRyjbRH13NVvt_-27" value="&lt;div&gt;&lt;span style=&quot;font-size: 30px;&quot;&gt;rdata&lt;/span&gt;&lt;/div&gt;" style="text;whiteSpace=wrap;html=1;" vertex="1" parent="1">
          <mxGeometry x="2760" y="40" width="250" height="60" as="geometry" />
        </mxCell>
        <mxCell id="oXpKcVIRyjbRH13NVvt_-28" value="&lt;div&gt;&lt;font style=&quot;font-size: 44px;&quot;&gt;dmem&lt;/font&gt;&lt;/div&gt;" style="text;whiteSpace=wrap;html=1;" vertex="1" parent="1">
          <mxGeometry x="2690" y="160" width="250" height="60" as="geometry" />
        </mxCell>
        <mxCell id="oXpKcVIRyjbRH13NVvt_-29" value="" style="triangle;whiteSpace=wrap;html=1;rotation=-90;" vertex="1" parent="1">
          <mxGeometry x="2640" y="-652" width="40" height="40" as="geometry" />
        </mxCell>
        <mxCell id="oXpKcVIRyjbRH13NVvt_-30" value="" style="triangle;whiteSpace=wrap;html=1;rotation=-90;" vertex="1" parent="1">
          <mxGeometry x="2640" y="240" width="40" height="40" as="geometry" />
        </mxCell>
        <mxCell id="oXpKcVIRyjbRH13NVvt_-31" value="" style="triangle;whiteSpace=wrap;html=1;rotation=-90;" vertex="1" parent="1">
          <mxGeometry x="4030" y="-642" width="40" height="40" as="geometry" />
        </mxCell>
        <mxCell id="oXpKcVIRyjbRH13NVvt_-32" value="" style="triangle;whiteSpace=wrap;html=1;rotation=-90;" vertex="1" parent="1">
          <mxGeometry x="2980" y="350" width="40" height="40" as="geometry" />
        </mxCell>
        <mxCell id="oXpKcVIRyjbRH13NVvt_-33" value="" style="endArrow=none;html=1;rounded=0;" edge="1" parent="1">
          <mxGeometry width="50" height="50" relative="1" as="geometry">
            <mxPoint x="1200" y="290" as="sourcePoint" />
            <mxPoint x="2300" y="290" as="targetPoint" />
          </mxGeometry>
        </mxCell>
        <mxCell id="oXpKcVIRyjbRH13NVvt_-34" value="" style="endArrow=none;html=1;rounded=0;" edge="1" parent="1">
          <mxGeometry width="50" height="50" relative="1" as="geometry">
            <mxPoint x="2298" y="290" as="sourcePoint" />
            <mxPoint x="2298" y="120" as="targetPoint" />
          </mxGeometry>
        </mxCell>
        <mxCell id="oXpKcVIRyjbRH13NVvt_-35" value="" style="endArrow=classic;html=1;rounded=0;" edge="1" parent="1">
          <mxGeometry width="50" height="50" relative="1" as="geometry">
            <mxPoint x="2300" y="120" as="sourcePoint" />
            <mxPoint x="2468" y="120" as="targetPoint" />
          </mxGeometry>
        </mxCell>
        <mxCell id="oXpKcVIRyjbRH13NVvt_-37" value="" style="endArrow=none;html=1;rounded=0;" edge="1" parent="1">
          <mxGeometry width="50" height="50" relative="1" as="geometry">
            <mxPoint x="1730" y="-161" as="sourcePoint" />
            <mxPoint x="2240" y="-161" as="targetPoint" />
          </mxGeometry>
        </mxCell>
        <mxCell id="oXpKcVIRyjbRH13NVvt_-41" value="" style="endArrow=classic;html=1;rounded=0;entryX=0.2;entryY=1.017;entryDx=0;entryDy=0;entryPerimeter=0;" edge="1" parent="1" target="oXpKcVIRyjbRH13NVvt_-18">
          <mxGeometry width="50" height="50" relative="1" as="geometry">
            <mxPoint x="2240" y="-160" as="sourcePoint" />
            <mxPoint x="2290" y="-210" as="targetPoint" />
          </mxGeometry>
        </mxCell>
        <mxCell id="oXpKcVIRyjbRH13NVvt_-42" value="" style="endArrow=none;html=1;rounded=0;" edge="1" parent="1">
          <mxGeometry width="50" height="50" relative="1" as="geometry">
            <mxPoint x="2550" y="-135.25" as="sourcePoint" />
            <mxPoint x="2550" y="-264.75" as="targetPoint" />
          </mxGeometry>
        </mxCell>
        <mxCell id="oXpKcVIRyjbRH13NVvt_-43" value="" style="endArrow=classic;html=1;rounded=0;" edge="1" parent="1">
          <mxGeometry width="50" height="50" relative="1" as="geometry">
            <mxPoint x="2550" y="-262.5" as="sourcePoint" />
            <mxPoint x="2450" y="-262.5" as="targetPoint" />
          </mxGeometry>
        </mxCell>
        <mxCell id="oXpKcVIRyjbRH13NVvt_-44" value="&lt;span style=&quot;font-size: 30px;&quot;&gt;&lt;font color=&quot;#3333ff&quot;&gt;muldiv_mux_sel_X&lt;/font&gt;&lt;/span&gt;&lt;div&gt;&lt;span style=&quot;font-size: 30px;&quot;&gt;&lt;font color=&quot;#3333ff&quot;&gt;&lt;br&gt;&lt;/font&gt;&lt;/span&gt;&lt;div&gt;&lt;span style=&quot;font-size: 30px;&quot;&gt;&lt;br&gt;&lt;/span&gt;&lt;/div&gt;&lt;/div&gt;" style="text;whiteSpace=wrap;html=1;" vertex="1" parent="1">
          <mxGeometry x="2360" y="-130" width="250" height="60" as="geometry" />
        </mxCell>
        <mxCell id="oXpKcVIRyjbRH13NVvt_-45" value="" style="endArrow=none;html=1;rounded=0;" edge="1" parent="1">
          <mxGeometry width="50" height="50" relative="1" as="geometry">
            <mxPoint x="2240" y="-300" as="sourcePoint" />
            <mxPoint x="2240" y="-640" as="targetPoint" />
          </mxGeometry>
        </mxCell>
        <mxCell id="oXpKcVIRyjbRH13NVvt_-46" value="" style="endArrow=classic;html=1;rounded=0;entryX=0.75;entryY=1;entryDx=0;entryDy=0;" edge="1" parent="1" target="idpTYqr38m1hENi_6hJd-18">
          <mxGeometry width="50" height="50" relative="1" as="geometry">
            <mxPoint x="2240" y="-640" as="sourcePoint" />
            <mxPoint x="2300" y="-680" as="targetPoint" />
          </mxGeometry>
        </mxCell>
        <mxCell id="oXpKcVIRyjbRH13NVvt_-47" value="" style="endArrow=classic;html=1;rounded=0;entryX=0;entryY=0.846;entryDx=0;entryDy=0;entryPerimeter=0;" edge="1" parent="1" target="idpTYqr38m1hENi_6hJd-21">
          <mxGeometry width="50" height="50" relative="1" as="geometry">
            <mxPoint x="2400" y="240" as="sourcePoint" />
            <mxPoint x="2440" y="190" as="targetPoint" />
          </mxGeometry>
        </mxCell>
        <mxCell id="oXpKcVIRyjbRH13NVvt_-48" value="" style="endArrow=none;html=1;rounded=0;" edge="1" parent="1">
          <mxGeometry width="50" height="50" relative="1" as="geometry">
            <mxPoint x="2400" y="400" as="sourcePoint" />
            <mxPoint x="2400" y="240" as="targetPoint" />
          </mxGeometry>
        </mxCell>
        <mxCell id="oXpKcVIRyjbRH13NVvt_-49" value="" style="endArrow=classic;html=1;rounded=0;" edge="1" parent="1">
          <mxGeometry width="50" height="50" relative="1" as="geometry">
            <mxPoint x="1650" y="70" as="sourcePoint" />
            <mxPoint x="1650" y="-70" as="targetPoint" />
          </mxGeometry>
        </mxCell>
        <mxCell id="oXpKcVIRyjbRH13NVvt_-50" value="&lt;span style=&quot;font-size: 30px;&quot;&gt;&lt;font color=&quot;#3333ff&quot;&gt;muldivreag_msg_fn_X&lt;/font&gt;&lt;/span&gt;&lt;div&gt;&lt;span style=&quot;font-size: 30px;&quot;&gt;&lt;br&gt;&lt;/span&gt;&lt;/div&gt;" style="text;whiteSpace=wrap;html=1;" vertex="1" parent="1">
          <mxGeometry x="1520" y="60" width="250" height="60" as="geometry" />
        </mxCell>
        <mxCell id="oXpKcVIRyjbRH13NVvt_-51" value="" style="endArrow=classic;html=1;rounded=0;" edge="1" parent="1">
          <mxGeometry width="50" height="50" relative="1" as="geometry">
            <mxPoint x="2410" y="-680" as="sourcePoint" />
            <mxPoint x="2630" y="-680" as="targetPoint" />
          </mxGeometry>
        </mxCell>
        <mxCell id="oXpKcVIRyjbRH13NVvt_-53" value="" style="endArrow=classic;html=1;rounded=0;entryX=0.25;entryY=1;entryDx=0;entryDy=0;" edge="1" parent="1" target="idpTYqr38m1hENi_6hJd-18">
          <mxGeometry width="50" height="50" relative="1" as="geometry">
            <mxPoint x="1800" y="-720" as="sourcePoint" />
            <mxPoint x="1850" y="-770" as="targetPoint" />
          </mxGeometry>
        </mxCell>
        <mxCell id="oXpKcVIRyjbRH13NVvt_-54" value="" style="endArrow=none;html=1;rounded=0;" edge="1" parent="1">
          <mxGeometry width="50" height="50" relative="1" as="geometry">
            <mxPoint x="2000" y="-720" as="sourcePoint" />
            <mxPoint x="2000" y="-920" as="targetPoint" />
          </mxGeometry>
        </mxCell>
        <mxCell id="oXpKcVIRyjbRH13NVvt_-55" value="" style="endArrow=classic;html=1;rounded=0;" edge="1" parent="1">
          <mxGeometry width="50" height="50" relative="1" as="geometry">
            <mxPoint x="2000" y="-921" as="sourcePoint" />
            <mxPoint x="2160" y="-921" as="targetPoint" />
          </mxGeometry>
        </mxCell>
        <mxCell id="oXpKcVIRyjbRH13NVvt_-56" value="&lt;span style=&quot;font-size: 30px;&quot;&gt;&lt;font color=&quot;#3333ff&quot;&gt;branch_cond_it/ltu/ge/geu_X&lt;/font&gt;&lt;/span&gt;" style="text;whiteSpace=wrap;html=1;" vertex="1" parent="1">
          <mxGeometry x="2190" y="-950" width="250" height="60" as="geometry" />
        </mxCell>
        <mxCell id="oXpKcVIRyjbRH13NVvt_-57" value="&lt;span style=&quot;font-family: Helvetica; font-size: 30px; font-style: normal; font-variant-ligatures: normal; font-variant-caps: normal; font-weight: 400; letter-spacing: normal; orphans: 2; text-align: left; text-indent: 0px; text-transform: none; widows: 2; word-spacing: 0px; -webkit-text-stroke-width: 0px; white-space: normal; background-color: rgb(251, 251, 251); text-decoration-thickness: initial; text-decoration-style: initial; text-decoration-color: initial; float: none; display: inline !important;&quot;&gt;&lt;font color=&quot;#3333ff&quot;&gt;branch_cond_eq/ne_X&lt;/font&gt;&lt;/span&gt;" style="text;whiteSpace=wrap;html=1;" vertex="1" parent="1">
          <mxGeometry x="1660" y="-1110" width="420" height="60" as="geometry" />
        </mxCell>
        <mxCell id="oXpKcVIRyjbRH13NVvt_-58" value="" style="endArrow=classic;html=1;rounded=0;" edge="1" parent="1">
          <mxGeometry width="50" height="50" relative="1" as="geometry">
            <mxPoint x="1713.29" y="-300" as="sourcePoint" />
            <mxPoint x="1713.29" y="-440" as="targetPoint" />
          </mxGeometry>
        </mxCell>
        <mxCell id="oXpKcVIRyjbRH13NVvt_-59" value="&lt;span style=&quot;font-family: Helvetica; font-size: 30px; font-style: normal; font-variant-ligatures: normal; font-variant-caps: normal; font-weight: 400; letter-spacing: normal; orphans: 2; text-align: left; text-indent: 0px; text-transform: none; widows: 2; word-spacing: 0px; -webkit-text-stroke-width: 0px; white-space: normal; background-color: rgb(251, 251, 251); text-decoration-thickness: initial; text-decoration-style: initial; text-decoration-color: initial; float: none; display: inline !important;&quot;&gt;&lt;font color=&quot;#3333ff&quot;&gt;alu_fn_D&lt;/font&gt;&lt;/span&gt;" style="text;whiteSpace=wrap;html=1;" vertex="1" parent="1">
          <mxGeometry x="1654" y="-300" width="420" height="60" as="geometry" />
        </mxCell>
        <mxCell id="oXpKcVIRyjbRH13NVvt_-60" value="" style="endArrow=none;html=1;rounded=0;" edge="1" parent="1" source="VG8MHKJ1vHQQKtuOWax9-11">
          <mxGeometry width="50" height="50" relative="1" as="geometry">
            <mxPoint x="2000" y="40" as="sourcePoint" />
            <mxPoint x="2000" y="-720" as="targetPoint" />
          </mxGeometry>
        </mxCell>
        <mxCell id="oXpKcVIRyjbRH13NVvt_-61" value="" style="endArrow=classic;html=1;rounded=0;" edge="1" parent="1">
          <mxGeometry width="50" height="50" relative="1" as="geometry">
            <mxPoint x="2000" y="40" as="sourcePoint" />
            <mxPoint x="2460" y="40" as="targetPoint" />
          </mxGeometry>
        </mxCell>
        <mxCell id="oXpKcVIRyjbRH13NVvt_-62" value="" style="endArrow=classic;html=1;rounded=0;" edge="1" parent="1">
          <mxGeometry width="50" height="50" relative="1" as="geometry">
            <mxPoint x="2390" y="-500" as="sourcePoint" />
            <mxPoint x="2390" y="-620" as="targetPoint" />
          </mxGeometry>
        </mxCell>
        <mxCell id="oXpKcVIRyjbRH13NVvt_-63" value="&lt;div&gt;&lt;span style=&quot;font-size: 30px;&quot;&gt;&lt;font color=&quot;#3333ff&quot;&gt;execute_mux_sel_X&lt;/font&gt;&lt;/span&gt;&lt;/div&gt;" style="text;whiteSpace=wrap;html=1;" vertex="1" parent="1">
          <mxGeometry x="2290" y="-501.40999999999997" width="250" height="60" as="geometry" />
        </mxCell>
        <mxCell id="oXpKcVIRyjbRH13NVvt_-64" value="&lt;div&gt;&lt;span style=&quot;font-size: 30px;&quot;&gt;&lt;font color=&quot;#3333ff&quot;&gt;dmem_msg_rw_M&lt;/font&gt;&lt;/span&gt;&lt;/div&gt;" style="text;whiteSpace=wrap;html=1;" vertex="1" parent="1">
          <mxGeometry x="2280" y="410" width="250" height="60" as="geometry" />
        </mxCell>
        <mxCell id="oXpKcVIRyjbRH13NVvt_-65" value="" style="endArrow=classic;html=1;rounded=0;entryX=0.419;entryY=1;entryDx=0;entryDy=0;entryPerimeter=0;" edge="1" parent="1" target="idpTYqr38m1hENi_6hJd-23">
          <mxGeometry width="50" height="50" relative="1" as="geometry">
            <mxPoint x="2840" y="80" as="sourcePoint" />
            <mxPoint x="2890" y="30" as="targetPoint" />
          </mxGeometry>
        </mxCell>
        <mxCell id="oXpKcVIRyjbRH13NVvt_-66" value="" style="endArrow=none;html=1;rounded=0;" edge="1" parent="1" target="VG8MHKJ1vHQQKtuOWax9-12">
          <mxGeometry width="50" height="50" relative="1" as="geometry">
            <mxPoint x="2880" y="320" as="sourcePoint" />
            <mxPoint x="2880" y="80" as="targetPoint" />
          </mxGeometry>
        </mxCell>
        <mxCell id="oXpKcVIRyjbRH13NVvt_-67" value="" style="endArrow=classic;html=1;rounded=0;entryX=0.408;entryY=1.05;entryDx=0;entryDy=0;entryPerimeter=0;" edge="1" parent="1" target="idpTYqr38m1hENi_6hJd-22">
          <mxGeometry width="50" height="50" relative="1" as="geometry">
            <mxPoint x="2880" y="320" as="sourcePoint" />
            <mxPoint x="2960" y="320" as="targetPoint" />
          </mxGeometry>
        </mxCell>
        <mxCell id="oXpKcVIRyjbRH13NVvt_-68" value="" style="endArrow=none;html=1;rounded=0;" edge="1" parent="1">
          <mxGeometry width="50" height="50" relative="1" as="geometry">
            <mxPoint x="3020" y="320" as="sourcePoint" />
            <mxPoint x="3210" y="320" as="targetPoint" />
          </mxGeometry>
        </mxCell>
        <mxCell id="oXpKcVIRyjbRH13NVvt_-69" value="" style="endArrow=none;html=1;rounded=0;" edge="1" parent="1">
          <mxGeometry width="50" height="50" relative="1" as="geometry">
            <mxPoint x="3200" y="320" as="sourcePoint" />
            <mxPoint x="3200" y="130" as="targetPoint" />
          </mxGeometry>
        </mxCell>
        <mxCell id="oXpKcVIRyjbRH13NVvt_-70" value="" style="endArrow=classic;html=1;rounded=0;entryX=0.75;entryY=1;entryDx=0;entryDy=0;" edge="1" parent="1" target="idpTYqr38m1hENi_6hJd-23">
          <mxGeometry width="50" height="50" relative="1" as="geometry">
            <mxPoint x="3200" y="130" as="sourcePoint" />
            <mxPoint x="3250" y="80" as="targetPoint" />
          </mxGeometry>
        </mxCell>
        <mxCell id="oXpKcVIRyjbRH13NVvt_-71" value="" style="endArrow=none;html=1;rounded=0;" edge="1" parent="1">
          <mxGeometry width="50" height="50" relative="1" as="geometry">
            <mxPoint x="3300" y="80" as="sourcePoint" />
            <mxPoint x="3560" y="80" as="targetPoint" />
          </mxGeometry>
        </mxCell>
        <mxCell id="oXpKcVIRyjbRH13NVvt_-72" value="" style="endArrow=classic;html=1;rounded=0;" edge="1" parent="1">
          <mxGeometry width="50" height="50" relative="1" as="geometry">
            <mxPoint x="3560" y="80" as="sourcePoint" />
            <mxPoint x="3560" y="-240" as="targetPoint" />
          </mxGeometry>
        </mxCell>
        <mxCell id="oXpKcVIRyjbRH13NVvt_-73" value="" style="endArrow=classic;html=1;rounded=0;entryX=0;entryY=0.5;entryDx=0;entryDy=0;" edge="1" parent="1" target="idpTYqr38m1hENi_6hJd-24">
          <mxGeometry width="50" height="50" relative="1" as="geometry">
            <mxPoint x="3310" y="-280" as="sourcePoint" />
            <mxPoint x="3360" y="-330" as="targetPoint" />
          </mxGeometry>
        </mxCell>
        <mxCell id="oXpKcVIRyjbRH13NVvt_-74" value="" style="endArrow=none;html=1;rounded=0;" edge="1" parent="1">
          <mxGeometry width="50" height="50" relative="1" as="geometry">
            <mxPoint x="3310" y="-150" as="sourcePoint" />
            <mxPoint x="3310" y="-280" as="targetPoint" />
          </mxGeometry>
        </mxCell>
        <mxCell id="oXpKcVIRyjbRH13NVvt_-75" value="&lt;div&gt;&lt;span style=&quot;font-size: 30px;&quot;&gt;&lt;font color=&quot;#3333ff&quot;&gt;dmemresp_mux_sel_M&lt;/font&gt;&lt;/span&gt;&lt;/div&gt;&lt;div&gt;&lt;span style=&quot;font-size: 30px;&quot;&gt;&lt;font color=&quot;#3333ff&quot;&gt;&lt;br&gt;&lt;/font&gt;&lt;/span&gt;&lt;div&gt;&lt;span style=&quot;font-size: 30px;&quot;&gt;&lt;br&gt;&lt;/span&gt;&lt;/div&gt;&lt;/div&gt;" style="text;whiteSpace=wrap;html=1;" vertex="1" parent="1">
          <mxGeometry x="3170" y="-140" width="250" height="60" as="geometry" />
        </mxCell>
        <mxCell id="oXpKcVIRyjbRH13NVvt_-76" value="" style="endArrow=classic;html=1;rounded=0;" edge="1" parent="1">
          <mxGeometry width="50" height="50" relative="1" as="geometry">
            <mxPoint x="2690" y="-680" as="sourcePoint" />
            <mxPoint x="3770" y="-680" as="targetPoint" />
          </mxGeometry>
        </mxCell>
        <mxCell id="oXpKcVIRyjbRH13NVvt_-77" value="" style="endArrow=none;html=1;rounded=0;" edge="1" parent="1">
          <mxGeometry width="50" height="50" relative="1" as="geometry">
            <mxPoint x="3560" y="-310" as="sourcePoint" />
            <mxPoint x="3560" y="-640" as="targetPoint" />
          </mxGeometry>
        </mxCell>
        <mxCell id="oXpKcVIRyjbRH13NVvt_-78" value="" style="endArrow=classic;html=1;rounded=0;" edge="1" parent="1">
          <mxGeometry width="50" height="50" relative="1" as="geometry">
            <mxPoint x="3560" y="-640" as="sourcePoint" />
            <mxPoint x="3770" y="-640" as="targetPoint" />
          </mxGeometry>
        </mxCell>
        <mxCell id="oXpKcVIRyjbRH13NVvt_-80" value="" style="endArrow=classic;html=1;rounded=0;" edge="1" parent="1">
          <mxGeometry width="50" height="50" relative="1" as="geometry">
            <mxPoint x="3840" y="-681" as="sourcePoint" />
            <mxPoint x="4020" y="-681" as="targetPoint" />
          </mxGeometry>
        </mxCell>
        <mxCell id="oXpKcVIRyjbRH13NVvt_-81" value="" style="endArrow=classic;html=1;rounded=0;" edge="1" parent="1">
          <mxGeometry width="50" height="50" relative="1" as="geometry">
            <mxPoint x="4070" y="-680" as="sourcePoint" />
            <mxPoint x="4340" y="-680" as="targetPoint" />
          </mxGeometry>
        </mxCell>
        <mxCell id="oXpKcVIRyjbRH13NVvt_-82" value="" style="endArrow=classic;html=1;rounded=0;" edge="1" parent="1" target="idpTYqr38m1hENi_6hJd-25">
          <mxGeometry width="50" height="50" relative="1" as="geometry">
            <mxPoint x="3800" y="-840" as="sourcePoint" />
            <mxPoint x="3850" y="-890" as="targetPoint" />
          </mxGeometry>
        </mxCell>
        <mxCell id="oXpKcVIRyjbRH13NVvt_-83" value="&lt;div&gt;&lt;span style=&quot;font-size: 30px;&quot;&gt;&lt;font color=&quot;#3333ff&quot;&gt;wb_mux_sel_M&lt;/font&gt;&lt;/span&gt;&lt;/div&gt;" style="text;whiteSpace=wrap;html=1;" vertex="1" parent="1">
          <mxGeometry x="3700" y="-910" width="250" height="60" as="geometry" />
        </mxCell>
        <mxCell id="oXpKcVIRyjbRH13NVvt_-84" value="" style="endArrow=classic;html=1;rounded=0;" edge="1" parent="1">
          <mxGeometry width="50" height="50" relative="1" as="geometry">
            <mxPoint x="4200" y="-680" as="sourcePoint" />
            <mxPoint x="4200" y="-510" as="targetPoint" />
          </mxGeometry>
        </mxCell>
        <mxCell id="oXpKcVIRyjbRH13NVvt_-85" value="&lt;div&gt;&lt;span style=&quot;font-size: 30px;&quot;&gt;&lt;font color=&quot;#3333ff&quot;&gt;proc2csr_data_Whl&lt;/font&gt;&lt;/span&gt;&lt;/div&gt;&lt;div&gt;&lt;span style=&quot;font-size: 30px;&quot;&gt;&lt;br&gt;&lt;/span&gt;&lt;/div&gt;" style="text;whiteSpace=wrap;html=1;" vertex="1" parent="1">
          <mxGeometry x="4100" y="-501.40999999999997" width="250" height="60" as="geometry" />
        </mxCell>
        <mxCell id="oXpKcVIRyjbRH13NVvt_-86" value="" style="endArrow=classic;html=1;rounded=0;" edge="1" parent="1">
          <mxGeometry width="50" height="50" relative="1" as="geometry">
            <mxPoint x="4450" y="-910" as="sourcePoint" />
            <mxPoint x="4450" y="-750" as="targetPoint" />
          </mxGeometry>
        </mxCell>
        <mxCell id="oXpKcVIRyjbRH13NVvt_-87" value="" style="endArrow=classic;html=1;rounded=0;" edge="1" parent="1">
          <mxGeometry width="50" height="50" relative="1" as="geometry">
            <mxPoint x="4630" y="-910" as="sourcePoint" />
            <mxPoint x="4630" y="-750" as="targetPoint" />
          </mxGeometry>
        </mxCell>
        <mxCell id="oXpKcVIRyjbRH13NVvt_-88" value="&lt;div&gt;&lt;span style=&quot;font-size: 30px;&quot;&gt;&lt;font color=&quot;#3333ff&quot;&gt;rf_waddr_W&lt;/font&gt;&lt;/span&gt;&lt;/div&gt;" style="text;whiteSpace=wrap;html=1;" vertex="1" parent="1">
          <mxGeometry x="4370" y="-980" width="250" height="60" as="geometry" />
        </mxCell>
        <mxCell id="oXpKcVIRyjbRH13NVvt_-89" value="&lt;div&gt;&lt;span style=&quot;font-size: 30px;&quot;&gt;&lt;font color=&quot;#3333ff&quot;&gt;rf_wen_W&lt;/font&gt;&lt;/span&gt;&lt;/div&gt;" style="text;whiteSpace=wrap;html=1;" vertex="1" parent="1">
          <mxGeometry x="4580" y="-980" width="250" height="60" as="geometry" />
        </mxCell>
        <mxCell id="oXpKcVIRyjbRH13NVvt_-90" value="&lt;div style=&quot;text-align: center;&quot;&gt;&lt;span style=&quot;background-color: initial;&quot;&gt;&lt;font style=&quot;font-size: 80px;&quot;&gt;Fetch(F)&lt;/font&gt;&lt;/span&gt;&lt;/div&gt;" style="text;whiteSpace=wrap;html=1;rotation=0;" vertex="1" parent="1">
          <mxGeometry x="-860" y="490" width="110" height="60" as="geometry" />
        </mxCell>
        <mxCell id="oXpKcVIRyjbRH13NVvt_-91" value="&lt;span style=&quot;color: rgb(0, 0, 0); font-family: Helvetica; font-size: 80px; font-style: normal; font-variant-ligatures: normal; font-variant-caps: normal; font-weight: 400; letter-spacing: normal; orphans: 2; text-align: center; text-indent: 0px; text-transform: none; widows: 2; word-spacing: 0px; -webkit-text-stroke-width: 0px; white-space: normal; background-color: rgb(251, 251, 251); text-decoration-thickness: initial; text-decoration-style: initial; text-decoration-color: initial; display: inline !important; float: none;&quot;&gt;Decode(D)&lt;/span&gt;" style="text;whiteSpace=wrap;html=1;" vertex="1" parent="1">
          <mxGeometry x="-110" y="530" width="340" height="120" as="geometry" />
        </mxCell>
        <mxCell id="oXpKcVIRyjbRH13NVvt_-92" value="" style="endArrow=none;dashed=1;html=1;strokeWidth=5;rounded=0;" edge="1" parent="1">
          <mxGeometry width="50" height="50" relative="1" as="geometry">
            <mxPoint x="1171.75" y="680" as="sourcePoint" />
            <mxPoint x="1188.25" y="-1570" as="targetPoint" />
          </mxGeometry>
        </mxCell>
        <mxCell id="oXpKcVIRyjbRH13NVvt_-94" value="&lt;span style=&quot;color: rgb(0, 0, 0); font-family: Helvetica; font-size: 80px; font-style: normal; font-variant-ligatures: normal; font-variant-caps: normal; font-weight: 400; letter-spacing: normal; orphans: 2; text-align: center; text-indent: 0px; text-transform: none; widows: 2; word-spacing: 0px; -webkit-text-stroke-width: 0px; white-space: normal; background-color: rgb(251, 251, 251); text-decoration-thickness: initial; text-decoration-style: initial; text-decoration-color: initial; display: inline !important; float: none;&quot;&gt;Execute(X)&lt;/span&gt;" style="text;whiteSpace=wrap;html=1;" vertex="1" parent="1">
          <mxGeometry x="1460" y="510" width="340" height="120" as="geometry" />
        </mxCell>
        <mxCell id="oXpKcVIRyjbRH13NVvt_-95" value="" style="endArrow=none;dashed=1;html=1;strokeWidth=5;rounded=0;" edge="1" parent="1">
          <mxGeometry width="50" height="50" relative="1" as="geometry">
            <mxPoint x="2651.75" y="720" as="sourcePoint" />
            <mxPoint x="2668.25" y="-1360" as="targetPoint" />
          </mxGeometry>
        </mxCell>
        <mxCell id="oXpKcVIRyjbRH13NVvt_-96" value="" style="endArrow=none;dashed=1;html=1;strokeWidth=5;rounded=0;" edge="1" parent="1">
          <mxGeometry width="50" height="50" relative="1" as="geometry">
            <mxPoint x="4050" y="730" as="sourcePoint" />
            <mxPoint x="4058.5" y="-1340" as="targetPoint" />
          </mxGeometry>
        </mxCell>
        <mxCell id="oXpKcVIRyjbRH13NVvt_-99" value="&lt;span style=&quot;color: rgb(0, 0, 0); font-family: Helvetica; font-size: 80px; font-style: normal; font-variant-ligatures: normal; font-variant-caps: normal; font-weight: 400; letter-spacing: normal; orphans: 2; text-align: center; text-indent: 0px; text-transform: none; widows: 2; word-spacing: 0px; -webkit-text-stroke-width: 0px; white-space: normal; background-color: rgb(251, 251, 251); text-decoration-thickness: initial; text-decoration-style: initial; text-decoration-color: initial; display: inline !important; float: none;&quot;&gt;Writeback(W)&lt;/span&gt;" style="text;whiteSpace=wrap;html=1;" vertex="1" parent="1">
          <mxGeometry x="4350" y="525" width="340" height="120" as="geometry" />
        </mxCell>
        <mxCell id="oXpKcVIRyjbRH13NVvt_-100" value="&lt;span style=&quot;color: rgb(0, 0, 0); font-family: Helvetica; font-size: 80px; font-style: normal; font-variant-ligatures: normal; font-variant-caps: normal; font-weight: 400; letter-spacing: normal; orphans: 2; text-align: center; text-indent: 0px; text-transform: none; widows: 2; word-spacing: 0px; -webkit-text-stroke-width: 0px; white-space: normal; background-color: rgb(251, 251, 251); text-decoration-thickness: initial; text-decoration-style: initial; text-decoration-color: initial; display: inline !important; float: none;&quot;&gt;Memory(M)&lt;/span&gt;" style="text;whiteSpace=wrap;html=1;" vertex="1" parent="1">
          <mxGeometry x="3210" y="520" width="430" height="120" as="geometry" />
        </mxCell>
        <mxCell id="oXpKcVIRyjbRH13NVvt_-103" value="&lt;div style=&quot;text-align: center;&quot;&gt;&lt;span style=&quot;text-wrap: nowrap;&quot;&gt;&lt;font style=&quot;font-size: 25px;&quot;&gt;imm_i&lt;/font&gt;&lt;/span&gt;&lt;/div&gt;" style="text;whiteSpace=wrap;html=1;" vertex="1" parent="1">
          <mxGeometry x="90" y="-320" width="70" height="50" as="geometry" />
        </mxCell>
        <mxCell id="oXpKcVIRyjbRH13NVvt_-104" value="&lt;span style=&quot;color: rgb(0, 0, 0); font-family: Helvetica; font-style: normal; font-variant-ligatures: normal; font-variant-caps: normal; font-weight: 400; letter-spacing: normal; orphans: 2; text-align: center; text-indent: 0px; text-transform: none; widows: 2; word-spacing: 0px; -webkit-text-stroke-width: 0px; white-space: nowrap; background-color: rgb(251, 251, 251); text-decoration-thickness: initial; text-decoration-style: initial; text-decoration-color: initial; float: none; display: inline !important;&quot;&gt;&lt;font style=&quot;font-size: 25px;&quot;&gt;imm_shamt&lt;/font&gt;&lt;/span&gt;" style="text;whiteSpace=wrap;html=1;" vertex="1" parent="1">
          <mxGeometry x="90" y="-280" width="120" as="geometry" />
        </mxCell>
        <mxCell id="oXpKcVIRyjbRH13NVvt_-106" value="&lt;span style=&quot;color: rgb(0, 0, 0); font-family: Helvetica; font-style: normal; font-variant-ligatures: normal; font-variant-caps: normal; font-weight: 400; letter-spacing: normal; orphans: 2; text-align: center; text-indent: 0px; text-transform: none; widows: 2; word-spacing: 0px; -webkit-text-stroke-width: 0px; white-space: nowrap; background-color: rgb(251, 251, 251); text-decoration-thickness: initial; text-decoration-style: initial; text-decoration-color: initial; float: none; display: inline !important;&quot;&gt;&lt;font style=&quot;font-size: 25px;&quot;&gt;imm_u&lt;/font&gt;&lt;/span&gt;" style="text;whiteSpace=wrap;html=1;" vertex="1" parent="1">
          <mxGeometry x="90" y="-240" width="120" height="60" as="geometry" />
        </mxCell>
        <mxCell id="oXpKcVIRyjbRH13NVvt_-108" value="&lt;span style=&quot;color: rgb(0, 0, 0); font-family: Helvetica; font-style: normal; font-variant-ligatures: normal; font-variant-caps: normal; font-weight: 400; letter-spacing: normal; orphans: 2; text-align: center; text-indent: 0px; text-transform: none; widows: 2; word-spacing: 0px; -webkit-text-stroke-width: 0px; white-space: nowrap; background-color: rgb(251, 251, 251); text-decoration-thickness: initial; text-decoration-style: initial; text-decoration-color: initial; float: none; display: inline !important;&quot;&gt;&lt;font style=&quot;font-size: 25px;&quot;&gt;imm_s&lt;/font&gt;&lt;/span&gt;" style="text;whiteSpace=wrap;html=1;" vertex="1" parent="1">
          <mxGeometry x="90" y="-200" width="130" height="60" as="geometry" />
        </mxCell>
        <mxCell id="oXpKcVIRyjbRH13NVvt_-110" value="&lt;span style=&quot;color: rgb(0, 0, 0); font-family: Helvetica; font-style: normal; font-variant-ligatures: normal; font-variant-caps: normal; font-weight: 400; letter-spacing: normal; orphans: 2; text-align: center; text-indent: 0px; text-transform: none; widows: 2; word-spacing: 0px; -webkit-text-stroke-width: 0px; white-space: nowrap; background-color: rgb(251, 251, 251); text-decoration-thickness: initial; text-decoration-style: initial; text-decoration-color: initial; float: none; display: inline !important;&quot;&gt;&lt;font style=&quot;font-size: 25px;&quot;&gt;imm_sb&lt;/font&gt;&lt;/span&gt;" style="text;whiteSpace=wrap;html=1;" vertex="1" parent="1">
          <mxGeometry x="90" y="-162.87" width="130" height="60" as="geometry" />
        </mxCell>
        <mxCell id="Y0skXffIHWInu-s1_A8m-3" value="" style="endArrow=none;html=1;rounded=0;" edge="1" parent="1">
          <mxGeometry width="50" height="50" relative="1" as="geometry">
            <mxPoint x="1600" y="-840" as="sourcePoint" />
            <mxPoint x="1600" y="-1000" as="targetPoint" />
          </mxGeometry>
        </mxCell>
        <mxCell id="Y0skXffIHWInu-s1_A8m-4" value="" style="endArrow=none;html=1;rounded=0;" edge="1" parent="1">
          <mxGeometry width="50" height="50" relative="1" as="geometry">
            <mxPoint x="1600" y="-1000" as="sourcePoint" />
            <mxPoint x="1760" y="-880" as="targetPoint" />
          </mxGeometry>
        </mxCell>
        <mxCell id="Y0skXffIHWInu-s1_A8m-5" value="" style="endArrow=none;html=1;rounded=0;" edge="1" parent="1">
          <mxGeometry width="50" height="50" relative="1" as="geometry">
            <mxPoint x="1760" y="-480" as="sourcePoint" />
            <mxPoint x="1760" y="-880" as="targetPoint" />
          </mxGeometry>
        </mxCell>
        <mxCell id="Y0skXffIHWInu-s1_A8m-6" value="" style="endArrow=none;html=1;rounded=0;" edge="1" parent="1">
          <mxGeometry width="50" height="50" relative="1" as="geometry">
            <mxPoint x="1600" y="-720" as="sourcePoint" />
            <mxPoint x="1600" y="-840" as="targetPoint" />
          </mxGeometry>
        </mxCell>
        <mxCell id="Y0skXffIHWInu-s1_A8m-9" value="" style="endArrow=none;html=1;rounded=0;" edge="1" parent="1">
          <mxGeometry width="50" height="50" relative="1" as="geometry">
            <mxPoint x="1600" y="-720" as="sourcePoint" />
            <mxPoint x="1640" y="-680" as="targetPoint" />
          </mxGeometry>
        </mxCell>
        <mxCell id="Y0skXffIHWInu-s1_A8m-10" value="" style="endArrow=none;html=1;rounded=0;" edge="1" parent="1">
          <mxGeometry width="50" height="50" relative="1" as="geometry">
            <mxPoint x="1600" y="-640" as="sourcePoint" />
            <mxPoint x="1640" y="-680" as="targetPoint" />
          </mxGeometry>
        </mxCell>
        <mxCell id="Y0skXffIHWInu-s1_A8m-11" value="" style="endArrow=none;html=1;rounded=0;" edge="1" parent="1">
          <mxGeometry width="50" height="50" relative="1" as="geometry">
            <mxPoint x="1598" y="-360" as="sourcePoint" />
            <mxPoint x="1598" y="-642" as="targetPoint" />
          </mxGeometry>
        </mxCell>
        <mxCell id="Y0skXffIHWInu-s1_A8m-12" value="" style="endArrow=none;html=1;rounded=0;" edge="1" parent="1">
          <mxGeometry width="50" height="50" relative="1" as="geometry">
            <mxPoint x="1600" y="-360" as="sourcePoint" />
            <mxPoint x="1760" y="-480" as="targetPoint" />
          </mxGeometry>
        </mxCell>
        <mxCell id="VG8MHKJ1vHQQKtuOWax9-2" value="" style="endArrow=none;dashed=1;html=1;strokeWidth=5;rounded=0;" edge="1" parent="1">
          <mxGeometry width="50" height="50" relative="1" as="geometry">
            <mxPoint x="-283" y="-330" as="sourcePoint" />
            <mxPoint x="-283" y="-1570" as="targetPoint" />
          </mxGeometry>
        </mxCell>
        <mxCell id="VG8MHKJ1vHQQKtuOWax9-4" value="" style="endArrow=none;html=1;rounded=0;" edge="1" parent="1">
          <mxGeometry width="50" height="50" relative="1" as="geometry">
            <mxPoint x="-1580" y="-1360" as="sourcePoint" />
            <mxPoint x="910" y="-1360" as="targetPoint" />
          </mxGeometry>
        </mxCell>
        <mxCell id="VG8MHKJ1vHQQKtuOWax9-5" value="" style="shape=waypoint;sketch=0;fillStyle=solid;size=6;pointerEvents=1;points=[];fillColor=none;resizable=0;rotatable=0;perimeter=centerPerimeter;snapToPoint=1;" vertex="1" parent="1">
          <mxGeometry x="-120" y="-410" width="20" height="20" as="geometry" />
        </mxCell>
        <mxCell id="VG8MHKJ1vHQQKtuOWax9-8" value="" style="shape=waypoint;sketch=0;fillStyle=solid;size=6;pointerEvents=1;points=[];fillColor=none;resizable=0;rotatable=0;perimeter=centerPerimeter;snapToPoint=1;" vertex="1" parent="1">
          <mxGeometry x="1390" y="-130" width="20" height="20" as="geometry" />
        </mxCell>
        <mxCell id="VG8MHKJ1vHQQKtuOWax9-9" value="" style="shape=waypoint;sketch=0;fillStyle=solid;size=6;pointerEvents=1;points=[];fillColor=none;resizable=0;rotatable=0;perimeter=centerPerimeter;snapToPoint=1;" vertex="1" parent="1">
          <mxGeometry x="1430" y="-650" width="20" height="20" as="geometry" />
        </mxCell>
        <mxCell id="VG8MHKJ1vHQQKtuOWax9-10" value="" style="endArrow=none;html=1;rounded=0;" edge="1" parent="1" target="VG8MHKJ1vHQQKtuOWax9-11">
          <mxGeometry width="50" height="50" relative="1" as="geometry">
            <mxPoint x="2000" y="40" as="sourcePoint" />
            <mxPoint x="2000" y="-720" as="targetPoint" />
          </mxGeometry>
        </mxCell>
        <mxCell id="VG8MHKJ1vHQQKtuOWax9-11" value="" style="shape=waypoint;sketch=0;fillStyle=solid;size=6;pointerEvents=1;points=[];fillColor=none;resizable=0;rotatable=0;perimeter=centerPerimeter;snapToPoint=1;" vertex="1" parent="1">
          <mxGeometry x="1990" y="-732" width="20" height="20" as="geometry" />
        </mxCell>
        <mxCell id="VG8MHKJ1vHQQKtuOWax9-12" value="" style="shape=waypoint;sketch=0;fillStyle=solid;size=6;pointerEvents=1;points=[];fillColor=none;resizable=0;rotatable=0;perimeter=centerPerimeter;snapToPoint=1;" vertex="1" parent="1">
          <mxGeometry x="2869.999999999999" y="70" width="20" height="20" as="geometry" />
        </mxCell>
        <mxCell id="VG8MHKJ1vHQQKtuOWax9-13" value="" style="endArrow=classic;html=1;rounded=0;" edge="1" parent="1">
          <mxGeometry width="50" height="50" relative="1" as="geometry">
            <mxPoint x="480" y="290" as="sourcePoint" />
            <mxPoint x="1160" y="290" as="targetPoint" />
          </mxGeometry>
        </mxCell>
        <mxCell id="VG8MHKJ1vHQQKtuOWax9-14" value="" style="endArrow=none;html=1;rounded=0;" edge="1" parent="1">
          <mxGeometry width="50" height="50" relative="1" as="geometry">
            <mxPoint x="290" y="-400" as="sourcePoint" />
            <mxPoint x="480" y="-400" as="targetPoint" />
          </mxGeometry>
        </mxCell>
        <mxCell id="VG8MHKJ1vHQQKtuOWax9-15" value="" style="endArrow=none;html=1;rounded=0;" edge="1" parent="1">
          <mxGeometry width="50" height="50" relative="1" as="geometry">
            <mxPoint x="480" y="290" as="sourcePoint" />
            <mxPoint x="480" y="-400" as="targetPoint" />
          </mxGeometry>
        </mxCell>
        <mxCell id="IWSMSolJp26f0NdcNTjL-1" value="" style="endArrow=none;html=1;rounded=0;" edge="1" parent="1">
          <mxGeometry width="50" height="50" relative="1" as="geometry">
            <mxPoint x="-1640" y="-960" as="sourcePoint" />
            <mxPoint x="-1400" y="-960" as="targetPoint" />
          </mxGeometry>
        </mxCell>
        <mxCell id="IWSMSolJp26f0NdcNTjL-2" value="" style="endArrow=none;html=1;rounded=0;" edge="1" parent="1">
          <mxGeometry width="50" height="50" relative="1" as="geometry">
            <mxPoint x="-1640" y="-960" as="sourcePoint" />
            <mxPoint x="-1640" y="-1420" as="targetPoint" />
          </mxGeometry>
        </mxCell>
        <mxCell id="IWSMSolJp26f0NdcNTjL-3" value="" style="endArrow=none;html=1;rounded=0;" edge="1" parent="1">
          <mxGeometry width="50" height="50" relative="1" as="geometry">
            <mxPoint x="-1580" y="-1000" as="sourcePoint" />
            <mxPoint x="-1580" y="-1360" as="targetPoint" />
          </mxGeometry>
        </mxCell>
        <mxCell id="IWSMSolJp26f0NdcNTjL-4" value="" style="endArrow=none;html=1;rounded=0;" edge="1" parent="1">
          <mxGeometry width="50" height="50" relative="1" as="geometry">
            <mxPoint x="-1480" y="-1040" as="sourcePoint" />
            <mxPoint x="-1400" y="-1040" as="targetPoint" />
          </mxGeometry>
        </mxCell>
        <mxCell id="IWSMSolJp26f0NdcNTjL-5" value="" style="endArrow=none;html=1;rounded=0;" edge="1" parent="1">
          <mxGeometry width="50" height="50" relative="1" as="geometry">
            <mxPoint x="-1480" y="-1040" as="sourcePoint" />
            <mxPoint x="-1480" y="-1250" as="targetPoint" />
          </mxGeometry>
        </mxCell>
        <mxCell id="zn3MZnFg3po8sbIGN5-C-2" value="" style="shape=waypoint;sketch=0;fillStyle=solid;size=6;pointerEvents=1;points=[];fillColor=none;resizable=0;rotatable=0;perimeter=centerPerimeter;snapToPoint=1;" vertex="1" parent="1">
          <mxGeometry x="-770" y="-1060" width="20" height="20" as="geometry" />
        </mxCell>
        <mxCell id="zn3MZnFg3po8sbIGN5-C-3" value="" style="endArrow=none;html=1;rounded=0;" edge="1" parent="1" source="zn3MZnFg3po8sbIGN5-C-7" target="zn3MZnFg3po8sbIGN5-C-4">
          <mxGeometry width="50" height="50" relative="1" as="geometry">
            <mxPoint x="-170" y="-680" as="sourcePoint" />
            <mxPoint x="-180" y="-1050" as="targetPoint" />
          </mxGeometry>
        </mxCell>
        <mxCell id="zn3MZnFg3po8sbIGN5-C-4" value="" style="shape=waypoint;sketch=0;fillStyle=solid;size=6;pointerEvents=1;points=[];fillColor=none;resizable=0;rotatable=0;perimeter=centerPerimeter;snapToPoint=1;" vertex="1" parent="1">
          <mxGeometry x="-180" y="-1060" width="20" height="20" as="geometry" />
        </mxCell>
        <mxCell id="zn3MZnFg3po8sbIGN5-C-6" value="" style="endArrow=none;html=1;rounded=0;" edge="1" parent="1" target="zn3MZnFg3po8sbIGN5-C-7">
          <mxGeometry width="50" height="50" relative="1" as="geometry">
            <mxPoint x="-170" y="-680" as="sourcePoint" />
            <mxPoint x="-170" y="-1050" as="targetPoint" />
          </mxGeometry>
        </mxCell>
        <mxCell id="zn3MZnFg3po8sbIGN5-C-7" value="" style="shape=waypoint;sketch=0;fillStyle=solid;size=6;pointerEvents=1;points=[];fillColor=none;resizable=0;rotatable=0;perimeter=centerPerimeter;snapToPoint=1;" vertex="1" parent="1">
          <mxGeometry x="-180" y="-750" width="20" height="20" as="geometry" />
        </mxCell>
        <mxCell id="zn3MZnFg3po8sbIGN5-C-9" value="&lt;span style=&quot;color: rgb(0, 0, 0); font-family: Helvetica; font-size: 30px; font-style: normal; font-variant-ligatures: normal; font-variant-caps: normal; font-weight: 400; letter-spacing: normal; orphans: 2; text-align: center; text-indent: 0px; text-transform: none; widows: 2; word-spacing: 0px; -webkit-text-stroke-width: 0px; white-space: normal; background-color: rgb(251, 251, 251); text-decoration-thickness: initial; text-decoration-style: initial; text-decoration-color: initial; display: inline !important; float: none;&quot;&gt;imem&lt;/span&gt;" style="text;whiteSpace=wrap;html=1;" vertex="1" parent="1">
          <mxGeometry x="-1020" y="-380" width="110" height="60" as="geometry" />
        </mxCell>
      </root>
    </mxGraphModel>
  </diagram>
</mxfile>
